<svg xmlns="http://www.w3.org/2000/svg" viewBox="0 0 1727.19 392.27"><defs><style>.cls-1,.cls-2{fill:#fff;}.cls-2,.cls-4{fill-rule:evenodd;}.cls-3,.cls-4{fill:#f15a24;}</style></defs><g id="Capa_2" data-name="Capa 2"><g id="Capa_1-2" data-name="Capa 1"><path class="cls-1" d="M525.65,359a20.14,20.14,0,0,1,7.56-7.81,20.93,20.93,0,0,1,10.71-2.8,21.71,21.71,0,0,1,12.33,3.42,19.35,19.35,0,0,1,7.48,9.62h-5.05a14.81,14.81,0,0,0-5.63-6.83,17.82,17.82,0,0,0-17.65-.24,15.45,15.45,0,0,0-5.94,6.37,22.55,22.55,0,0,0,0,19.22,15.41,15.41,0,0,0,5.94,6.33,17.92,17.92,0,0,0,17.65-.21,14.63,14.63,0,0,0,5.63-6.74h5.05a19.22,19.22,0,0,1-7.51,9.54,22,22,0,0,1-12.3,3.38,20.83,20.83,0,0,1-10.71-2.8,20.13,20.13,0,0,1-7.56-7.78,24.58,24.58,0,0,1,0-22.67Z"/><path class="cls-1" d="M650.89,391.84l-10.64-18h-7.93v18H628v-43h12.92c4.8,0,8.43,1.15,10.92,3.45a11.75,11.75,0,0,1,3.72,9,12.21,12.21,0,0,1-2.68,8,12.79,12.79,0,0,1-7.9,4.27l11.07,18.27Zm-18.57-21.47H641q5,0,7.6-2.46a8.71,8.71,0,0,0,2.55-6.58,8.54,8.54,0,0,0-2.46-6.55c-1.64-1.54-4.23-2.31-7.75-2.31h-8.61Z"/><path class="cls-1" d="M724.16,352.35v16.06h16.3V372h-16.3v16.3H742.3v3.57H719.85V348.78H742.3v3.57Z"/><path class="cls-1" d="M831.44,381.63H811.88l-3.76,10.21h-4.55l15.69-42.44h4.86l15.62,42.44h-4.55Zm-1.29-3.57-8.49-23.25-8.49,23.25Z"/><path class="cls-1" d="M927.52,348.84v3.57H915.59v39.43h-4.31V352.41h-12v-3.57Z"/><path class="cls-1" d="M994.39,348.84v43h-4.31v-43Z"/><path class="cls-1" d="M1092.32,391.84H1088l-23.8-36.17v36.17h-4.31v-43h4.31L1088,385V348.84h4.31Z"/><path class="cls-1" d="M1191.66,361.39a14.69,14.69,0,0,0-5.62-6.67,16.12,16.12,0,0,0-8.89-2.43,16.94,16.94,0,0,0-8.62,2.21,15.79,15.79,0,0,0-6,6.31,19.61,19.61,0,0,0-2.22,9.5,19.82,19.82,0,0,0,2.22,9.54,15.65,15.65,0,0,0,6,6.33,17.84,17.84,0,0,0,16.71.28,15.06,15.06,0,0,0,5.78-5.54,18.27,18.27,0,0,0,2.49-8.39h-18.09V369h22.64v3.14A21.76,21.76,0,0,1,1195,382.4a20.18,20.18,0,0,1-7.42,7.23,20.69,20.69,0,0,1-10.42,2.64,21.27,21.27,0,0,1-10.83-2.8,20.18,20.18,0,0,1-7.66-7.81,24.4,24.4,0,0,1,0-22.7,20.25,20.25,0,0,1,7.66-7.81,22.57,22.57,0,0,1,22.88.65,19.48,19.48,0,0,1,7.51,9.59Z"/><path class="cls-1" d="M1368.33,348.84l-16.3,43h-4.92l-16.3-43h4.67l14.09,38.33,14.21-38.33Z"/><path class="cls-1" d="M1455.44,381.63h-19.56l-3.76,10.21h-4.55l15.69-42.44h4.86l15.62,42.44h-4.55Zm-1.29-3.57-8.49-23.25-8.49,23.25Z"/><path class="cls-1" d="M1530.67,388.34h15.44v3.5h-19.75v-43h4.31Z"/><path class="cls-1" d="M1612.11,348.84v27.07q0,6.4,3.05,9.47a11.2,11.2,0,0,0,8.33,3.08q5.29,0,8.28-3t3-9.5V348.84h4.31v27q0,8.17-4.34,12.3t-11.29,4.12a15.73,15.73,0,0,1-11.29-4.12q-4.34-4.12-4.33-12.3v-27Z"/><path class="cls-1" d="M1708.69,352.35v16.06H1725V372h-16.3v16.3h18.15v3.57h-22.46V348.78h22.46v3.57Z"/><path class="cls-1" d="M1040.09,150.35a73.29,73.29,0,0,0-146.55-.86v1.42h0l.05,63,0,23.07v.05h0a73.13,73.13,0,0,0,73.2,70.06c38.53,0,69.74-30,72.95-67l-7.88,0-18.05-.1c-.2,0-.29.2-.48.19a46.89,46.89,0,0,1-93.41-4l0-22.21V199.24h0v0h0v0l106.66.53c5.54,0,13.63-4.52,13.47-13.29,0-2.87,0-7.44,0-9.88C1040.06,159.32,1040.08,152.61,1040.09,150.35Zm-26.41,21.27-93.75,0v.29h0v-.29h0c0-11.85,0-19.2,0-20.69a46.86,46.86,0,1,1,93.72,0Z"/><path class="cls-1" d="M1040.09,150.35c0,.18,0,.36,0,.54C1040.11,150.48,1040.1,148,1040.09,150.35Z"/><path class="cls-2" d="M1288.93,100.34c-26.65,0-47,22.33-47,48.54q0,43.88,0,87.76h0c.95,25.44,21.2,46.56,47,46.56s45.6-17.07,46.68-42.39h7.71l16.34-.08h2.51s0,.08,0,.12c-3.07,38.14-34.31,68.86-73.23,68.86-40,0-71.94-32.51-73.42-72.14h0l0-23.8,0-64.89h0v-2.2c0-.08,0,.09,0,.73.75-40.16,32.91-73.59,73.5-73.59,35.49,0,68.34,24.89,71.74,58.65.39,3.9,0,8.27-2.16,11.26a12.06,12.06,0,0,1-10.31,5.16c-10.46-.13-11.6-.25-12.26-.25,0-.52,0-.81,0-1.32C1335.13,121.79,1315.06,100.34,1288.93,100.34Zm-73.51,48.54h0v0Z"/><path class="cls-2" d="M1129.79,306.8c-20-.32-30-5.52-41.17-18.06-3.67-4.14-8.43-12.53-10.49-23-1.46-7.45-1.51-19.35-1.51-23.78,0-3.28.14-7.3.14-11.92V103.26h-40.38c-10.82-15.91-19.16-18.35-32.46-25.34h72.84v-55L1099,3.78c2.48-2,5.09-1.18,4.94,2.57V77.92h42.59v25.34h-42.59v129c0,1.69-.19,18.65.56,23.65.92,6.11,5.17,15.47,11,18.77,5.62,3.16,13.14,3.08,17.52,4,8,1.76,11.93,7.75,11.94,14.32l0,13.82C1139.89,306.8,1134.84,306.88,1129.79,306.8Z"/><path class="cls-2" d="M1168.82,306.86V78h13.86c5.84,0,9.66,1.62,11.69,4.18,2.55,3.23,2.48,7.91,2.41,12.37V306.86Z"/><path class="cls-2" d="M666.85,307.18H637.6l-70-110.24-16.14,18.13v92.11h-28v-207c-.12-5.53-.35-10.55,1.11-14.45,2-5.37,6.75-8.67,14.71-8.32h12.18v96l71.37-83.1,10-12.21,21.6,0h11.68l-8.54,10.51-72,88.6Z"/><path class="cls-2" d="M709.78,307.59V77.52H695.92c-5.83,0-9.66,1.63-11.68,4.18-2.55,3.23-2.49,7.91-2.42,12.37V307.59Z"/><path class="cls-1" d="M827.08,109.87l.46.28Z"/><path class="cls-1" d="M811.88,77.51a67.44,67.44,0,0,0-49.74,21.81l-.19-.13-.07.07a1.33,1.33,0,0,1-.74,0,1.52,1.52,0,0,1-.94-.63,2.79,2.79,0,0,1-.2-.92c0-.68.07-1.55.09-2.39.36-10.33-6.53-17.19-17.37-16.75H732.13V307.33h28.69V155.48c0-7.55.23-14.68,1.81-20.5a41.84,41.84,0,0,1,14.51-22.26c5.72-4.51,10.59-7.29,16.89-8.62a47.43,47.43,0,0,1,14.88-.64A38.94,38.94,0,0,1,819,105.9l.93.44a42.72,42.72,0,0,1,7.18,3.53l.46.28a42.77,42.77,0,0,1,7.8,6.31l1.72,1.49a24.18,24.18,0,0,1,3.41,4,51.31,51.31,0,0,1,4.27,8.09c3.55,7.84,3.9,14.44,3.9,25.27v152h30.79l0-152.53c0-4.76.14-10-.14-15.45A67.61,67.61,0,0,0,811.88,77.51Z"/><path class="cls-1" d="M1389,266.1c0-24.35,20.44-44.79,44.41-44.79a43.79,43.79,0,0,1,31.16,13.25l-6.69,6.81a33.79,33.79,0,0,0-24.47-11c-18.67,0-34.44,16.4-34.44,35.7s15.77,35.83,34.44,35.83a33.8,33.8,0,0,0,24.47-11l6.69,6.81A44.29,44.29,0,0,1,1433.37,311C1409.4,311,1389,290.45,1389,266.1Z"/><path class="cls-1" d="M1472.86,266.1c0-24.35,20.43-44.79,44.4-44.79s44.29,20.44,44.29,44.79S1541.36,311,1517.26,311,1472.86,290.45,1472.86,266.1Zm78.72,0c0-19.3-15.65-35.7-34.32-35.7s-34.44,16.4-34.44,35.7,15.77,35.83,34.44,35.83S1551.58,285.53,1551.58,266.1Z"/><path class="cls-1" d="M1621.59,277.45l22.46,32.05h-11.23l-22-31.16h-23V309.5h-9.84V222.83h35.2c17.91,0,31.92,11.48,31.92,27.75C1645.19,264.21,1635.35,274.55,1621.59,277.45ZM1587.91,269h23.59c14.13,0,23.72-6.81,23.72-18.42s-9.59-18.42-23.72-18.42h-23.59Z"/><path class="cls-1" d="M1660.07,222.83h35.2c17.91,0,31.92,11.48,31.92,27.75s-14,27.76-31.92,27.76h-25.36V309.5h-9.84ZM1693.5,269c14.13,0,23.72-6.81,23.72-18.42s-9.59-18.42-23.72-18.42h-23.59V269Z"/><path class="cls-3" d="M348.86,290.52A114.56,114.56,0,0,1,345.61,318c-5,20.13-15.88,36.27-32.21,48a102.67,102.67,0,0,1-18,10.22c-70.36,13-144.91,14.55-199.51,4.07l-3.79-.71c-44.9-9.29-73.78-25.89-85.82-49.32C0,318-1.56,303.74,1.52,287.58a46.51,46.51,0,0,0,4.35,9.75C17.61,317,43.38,327.71,89.44,331.94l4.2.37c3.12.23,6.33.47,9.68.7,1.64.08,3.26.21,5.13.36l2.5.17c2,.14,4,.28,5.88.34l1.57.07c10.55.49,17.13.8,21.46.85l4.75.18c59.41,2.27,106.7-1.4,172.76-26.87l.13-.05,1.22-.5,1.39-.57c8.13-3.51,20.52-10.71,28.53-24.12C348.78,285.45,348.86,288,348.86,290.52Z"/><path class="cls-4" d="M423.6,272.25c-9.94-28.6-24.2-56.89-40.16-84s-33.61-53.13-50.28-77.12c-29.31-35.73-54.29-54-76.37-56-15.91-1.41-28.59,6.5-38.17,14.37a45.36,45.36,0,0,1,5.34,1c29.82,7.08,61.43,46.35,82.7,78,24.82,37,43.59,75.17,49,90.49l.08.2c16,53.23,8.26,98.82-21.11,128.34,3.53-.9,6.94-1.84,10.3-2.84a317.44,317.44,0,0,0,36.19-12.87A128.47,128.47,0,0,0,401.17,341C418.11,329.1,435.81,307.44,423.6,272.25Z"/><path class="cls-4" d="M284,47.86a72.29,72.29,0,0,0-26-7.66c-22.92-2-39.71,9.7-51.76,20.11C182.9,80.42,154,122.11,126.92,174.69c-24.21,47.05-42.31,94.13-46.12,120a39,39,0,0,0,3.29,21.71C59.16,313.68,29.69,307.54,19,290c-8-12.93-6.34-32,5-58.46,6.76-15.7,15.17-30.71,28.13-50.2,6.15-9.23,13-19,20.23-29.23l2-2.8c5.39-7.6,10.23-14.5,14.76-21,1.13-1.59,6.87-8.89,10.2-13.09l.42-.53c23.39-29.1,72-89.66,98.81-107.81C205.59,2,211.76,0,217.72,0c6.8,0,13.32,2.65,20.6,6.83C248,13.83,264.57,27,284,47.86Z"/></g></g></svg>