<?xml version="1.0" encoding="UTF-8"?>
<svg id="Layer_2" data-name="Layer 2" xmlns="http://www.w3.org/2000/svg" viewBox="0 0 2500 1355.89">
  <defs>
    <style>
      .cls-1, .cls-2 {
        fill: #fff;
      }

      .cls-2 {
        fill-rule: evenodd;
      }
    </style>
  </defs>
  <g id="Layer_1-2" data-name="Layer 1" image-rendering="optimizeQuality" shape-rendering="geometricPrecision" text-rendering="geometricPrecision">
    <g>
      <path class="cls-2" d="M677.94,0h1144.11c372.87,0,677.94,305.07,677.94,677.94s-305.07,677.94-677.94,677.94H677.94C305.07,1355.89,0,1050.81,0,677.94S305.07,0,677.94,0ZM677.94,85.21h1144.11c326.02,0,592.73,266.72,592.73,592.73s-266.72,592.73-592.73,592.73H677.94c-326.02,0-592.73-266.72-592.73-592.73S351.93,85.21,677.94,85.21Z"/>
      <g>
        <path class="cls-1" d="M657.08,613.84c-4.3-5.27-8.83-7.91-13.61-7.91-8.59,0-15.75,8.84-21.48,26.5-.96,2.37-4.42,11.74-10.38,28.09-10.03,26.9-15.04,42.99-15.04,48.26,0,6.59,5.49,9.89,16.47,9.89h70.18c12.89,0,19.33-3.17,19.33-9.49,0-8.7-8.95-30.06-26.85-64.08-8.12-15.56-14.32-25.97-18.62-31.25Z"/>
        <path class="cls-1" d="M1814.26,480.53c-11.46,0-19.51,2.51-24.17,7.52-4.65,5.01-6.98,13.45-6.98,25.32v306.17c0,16.61,3.22,28.42,9.67,35.4,6.44,6.99,17.19,10.48,32.22,10.48,69.69,0,104.55-58.54,104.55-175.63,0-64.61-8.12-114.72-24.35-150.32-17.9-39.29-48.22-58.94-90.94-58.94Z"/>
        <path class="cls-1" d="M1822.06,170.38H677.94c-280.3,0-507.52,227.23-507.52,507.52s227.23,507.52,507.52,507.52h1144.11c280.3,0,507.52-227.23,507.52-507.52s-227.23-507.52-507.52-507.52ZM959.98,937.81c-21.01,8.44-55.38,12.66-103.12,12.66-53.95,0-93.93-2.51-119.94-7.52-11.94-2.37-21.43-7.18-28.46-14.44-7.04-7.25-10.56-16.02-10.56-26.31,0-7.91,1.85-14.04,5.55-18.39,3.7-4.35,10.56-8.37,20.59-12.07,11.22-4.21,16.83-11.33,16.83-21.36,0-17.67-9.67-28.09-29-31.25-20.77-3.17-50.01-4.75-87.72-4.75-31.75,0-50.72,2.11-56.93,6.33-3.82,2.64-7.16,7.39-10.03,14.24-2.86,6.86-4.3,13.45-4.3,19.78,0,5.8,1.01,9.56,3.04,11.27,2.02,1.72,8.65,4.55,19.87,8.5,14.56,4.75,21.84,14.24,21.84,28.48,0,31.39-34.01,47.07-102.04,47.07-38.67,0-67.08-2.9-85.21-8.7-16.71-5.54-25.06-17.67-25.06-36.39,0-8.17,1.85-14.5,5.55-18.99,3.7-4.48,10.32-8.57,19.87-12.26,15.51-6.06,27.27-14.57,35.27-25.51,8-10.94,19.39-34.35,34.19-70.21l50.48-122.23c18.62-44.83,31.09-78.38,37.42-100.67,6.32-22.28,9.61-44.11,9.85-65.47.23-22.68,1.49-38.43,3.76-47.27,2.27-8.83,7.34-17.47,15.22-25.91,16.47-18.46,37.47-27.69,63.02-27.69,24.11,0,47.14,10.42,69.1,31.25,30.55,28.48,74.95,111.42,133.19,248.82l67.67,160.21c6.44,14.77,11.82,24.46,16.11,29.08,4.3,4.62,10.86,7.71,19.69,9.3,17.19,2.9,25.78,12.53,25.78,28.88,0,19.25-10.51,33.1-31.51,41.54ZM1527.47,747.35c-5.97,6.99-13.73,11.14-23.27,12.46-8.36,1.32-13.79,3.36-16.29,6.13-2.51,2.77-5.07,9.56-7.7,20.37-10.27,41.93-30.32,77.01-60.15,105.22-20.53,19.25-45.29,34.28-74.29,45.09-29,10.81-59.5,16.22-91.48,16.22-52.27,0-100.25-13.31-143.93-39.95-44.88-27.16-79.01-65.13-102.4-113.92-19.57-40.61-29.36-84.52-29.36-131.73s11.69-93.09,35.09-136.08c24.82-46.15,59.55-81.75,104.19-106.8,38.9-22.15,83.3-33.23,133.19-33.23,31.27,0,60.74,4.88,88.44,14.64,12.41,4.49,20.88,6.72,25.42,6.72,4.77,0,14.8-3.03,30.08-9.1,5.01-1.84,10.14-2.77,15.4-2.77,13.37,0,26.14,8.7,38.31,26.11,19.57,27.96,29.36,58.54,29.36,91.77,0,22.68-5.19,41.01-15.58,54.98-10.38,13.98-24.05,20.96-41,20.96-13.85,0-27.45-5.54-40.82-16.61-4.06-3.42-13.96-15.82-29.72-37.18-26.26-35.6-56.45-53.4-90.58-53.4-31.03,0-55.68,12.53-73.94,37.58-18.26,25.06-27.39,58.81-27.39,101.27,0,63.03,14.56,116.69,43.68,161,10.98,16.09,24.11,28.95,39.38,38.57,15.27,9.63,30.43,14.44,45.47,14.44,12.41,0,22.61-4.55,30.61-13.65,7.99-9.1,11.99-20.77,11.99-35.01,0-12.66-3.35-21.62-10.03-26.9-2.63-2.11-5.07-3.36-7.34-3.76-2.27-.4-9.13-.59-20.59-.59-10.27,0-18.8-3.62-25.6-10.88-6.8-7.25-10.2-16.42-10.2-27.49,0-21.89,13.12-37.44,39.38-46.68,28.88-10.02,62.18-15.03,99.89-15.03,40.34,0,74.23,4.62,101.68,13.84,26.01,8.97,39.03,25.19,39.03,48.66,0,9.49-2.99,17.74-8.95,24.72ZM2102.84,759.61c-7.88,29.93-18.5,55.84-31.87,77.73-27.69,44.3-65.88,75.42-114.57,93.35-28.64,10.55-59.2,15.82-91.66,15.82l-43.32-1.58-37.24-1.19c-28.88-1.06-54.3-1.58-76.26-1.58h-25.78c-15.04,0-31.87.79-50.48,2.37-11.7,1.05-19.82,1.58-24.35,1.58-15.99,0-29-4.09-39.03-12.26-10.03-8.17-15.04-18.85-15.04-32.04,0-9.23,2.2-16.42,6.62-21.56,4.41-5.14,11.64-9.3,21.66-12.46,9.54-2.63,15.99-6.92,19.33-12.86,3.34-5.93,5.96-17.47,7.88-34.61,1.91-19.78,3.64-58.28,5.19-115.51,1.55-57.22,2.33-114.05,2.33-170.49,0-22.15-1.56-36.92-4.66-44.3-3.1-7.38-10.38-13.31-21.84-17.8-16.47-6.85-24.71-18.59-24.71-35.21,0-12.92,5.67-23,17.01-30.26,11.33-7.25,27.15-10.88,47.44-10.88,6.68,0,14.56.14,23.63.4,20.05.79,34.61,1.19,43.68,1.19,34.13,0,72.68-1.19,115.65-3.56,9.07-.53,20.41-.79,34.01-.79,54.66,0,97.86,6.86,129.61,20.57,47.26,20.57,82.82,55.12,106.7,103.64,21.24,42.72,31.87,93.62,31.87,152.69,0,29.8-3.94,59.67-11.82,89.6Z"/>
      </g>
    </g>
  </g>
</svg>