<?xml version="1.0" encoding="UTF-8"?>
<svg id="Layer_2" data-name="Layer 2" xmlns="http://www.w3.org/2000/svg" viewBox="0 0 589.9 112.61">
  <defs>
    <style>
      .cls-1 {
        fill: #fff;
      }
    </style>
  </defs>
  <g id="Layer_1-2" data-name="Layer 1">
    <g>
      <path class="cls-1" d="M290.22,98.14l-6.14.04v-40.1s11.3.05,11.3.05c1.55,0,3.01.21,4.46.59,6.63,1.82,8.49,9.11,6.46,15.32-.57,1.48-1.42,2.63-2.61,3.67-1.63,1.35-3.64,1.98-5.79,2.29l12.9,17,18.91-40.52,19.4,41.68-6.9.06-4.52-10.25h-15.89s-4.66,10.24-4.66,10.24h-12.89s-12.97-17.43-12.97-17.43c-.19-.52-.74-.6-1.07-.36v17.75ZM300.08,71.75c.4-1.6.31-3.2-.14-4.69-1.07-3.42-5.72-3.35-9.33-3.33v11.43c3.73-.07,8.65.25,9.47-3.41ZM335.3,82.39l-2.77-6.27c-1.13-2.27-1.97-4.49-2.75-7.06l-1.58,4.55-3.92,8.77,11.03.02Z"/>
      <path class="cls-1" d="M423.56,69.03c4.39,11.27.49,26.22-12.76,28.61l-5.56.51-14.12.05v-40.12s12.71.05,12.71.05l6.92.55c5.83,1,10.62,4.76,12.8,10.36ZM417.57,72.39c-.86-2.97-2.74-5.4-5.37-6.92-1.98-1-4.05-1.39-6.26-1.41l-8.28-.06v28.26s7.91-.05,7.91-.05c2.18-.01,4.23-.31,6.22-1.22,6.49-3.32,7.68-12,5.77-18.61Z"/>
      <polygon class="cls-1" points="279.25 79.39 263.46 79.39 263.44 92.35 279.25 92.36 279.25 98.19 256.81 98.19 256.81 58.08 279.22 58.07 279.25 63.71 263.47 63.7 263.44 73.65 279.25 73.66 279.25 79.39"/>
      <g>
        <path class="cls-1" d="M176.41,83.25l-9.64-.07.02-5.6h15.89c1.02,9.66-1.78,17.84-11.43,20.8-4.54,1.19-9.23,1.23-13.81.05-10.35-2.66-15.67-12.77-14.44-23.25,1.52-12.95,14.03-20.28,26.57-17.41,3.95.98,7.26,3.18,9.9,6.41l-4.79,3.63c-2.68-3.2-6.54-4.83-10.69-4.6-6.99-.1-12.89,4.79-14.04,11.65-.47,2.78-.38,5.47.35,8.18,1.67,6.18,7.1,10.23,13.49,10.32,2.71.04,5.27-.21,7.66-1.43,3.26-1.63,5.22-4.77,4.94-8.69Z"/>
        <polygon class="cls-1" points="250.27 99.75 247.91 97.52 243.08 92.9 238.05 88.08 233.02 83.25 227.99 78.42 222.8 73.36 220.39 70.54 220.39 98.17 214.35 98.19 214.35 56.52 216.72 58.73 221.95 63.76 227.38 68.98 232.81 74.21 238.05 79.23 244.11 85.61 244.14 58.1 250.27 58.07 250.27 99.75"/>
        <polygon class="cls-1" points="209.51 79.39 193.64 79.39 193.62 92.35 209.53 92.37 209.51 98.19 187.09 98.19 187.09 58.08 209.51 58.07 209.52 63.69 193.62 63.71 193.62 73.65 209.5 73.66 209.51 79.39"/>
      </g>
      <g>
        <path class="cls-1" d="M578.51,87.94h-15.89s-4.64,10.23-4.64,10.23l-6.89-.02,19.45-41.72,19.38,41.65-6.86.13-4.54-10.26ZM576.14,82.4l-4.09-9.13-1.48-4.34c-.58,2.35-1.32,4.38-2.35,6.44l-3.12,7.02,11.04.02Z"/>
        <g>
          <polygon class="cls-1" points="490.14 98.13 483.6 98.2 483.59 78.78 463.87 78.79 463.87 98.18 457.34 98.18 457.34 58.09 463.87 58.08 463.87 72.85 483.59 72.85 483.59 58.09 490.14 58.09 490.14 98.13"/>
          <polygon class="cls-1" points="452.51 79.39 436.61 79.39 436.61 92.36 452.51 92.36 452.51 98.19 430.07 98.19 430.06 58.08 452.48 58.07 452.5 63.7 436.61 63.71 436.61 73.66 452.51 73.66 452.51 79.39"/>
          <g>
            <polygon class="cls-1" points="519.2 79.39 503.33 79.39 503.3 92.35 519.21 92.37 519.19 98.19 496.77 98.19 496.77 58.07 519.19 58.07 519.21 63.69 503.31 63.71 503.31 73.65 519.19 73.66 519.2 79.39"/>
            <polygon class="cls-1" points="550.59 98.19 519.86 98.18 540.24 63.73 523.36 63.7 523.35 58.07 550.39 58.08 530.15 92.34 550.58 92.36 550.59 98.19"/>
          </g>
        </g>
      </g>
      <polygon class="cls-1" points="374.22 92.36 374.23 98.19 353.1 98.19 353.1 58.09 359.64 58.09 359.63 92.35 374.22 92.36"/>
      <g>
        <path class="cls-1" d="M325.92,35.82c-1.32,3.86-5.1,7.18-9.04,7.98-1.8.39-3.58.55-5.44.56l-9.35.05V14.04s9.8.03,9.8.03l4.97.52c9.36,2.17,11.97,12.73,9.06,21.22ZM321.98,22.97c-1.47-3.06-4.09-5.15-7.47-5.28l-8.69-.34v23.52s5.68,0,5.68,0l3.92-.36c7.65-1.25,9.26-11.01,6.56-17.54Z"/>
        <rect class="cls-1" x="184.88" y="14.04" width="3.72" height="30.36"/>
        <path class="cls-1" d="M260.03,35.14c-1.41,4.6-5.09,7.79-9.65,8.75l-4.98.46-9.41.05V14.04s9.69.03,9.69.03l4.27.38c9.64,1.62,12.74,11.98,10.07,20.7ZM255.99,35.09c1.43-3.67,1.44-7.69.2-11.33-1.26-3.37-3.93-5.61-7.52-6.03l-8.97-.38v23.51s8.41-.16,8.41-.16c3.59-.3,6.4-2.18,7.87-5.61Z"/>
        <path class="cls-1" d="M220.38,14.11l3.75-.04-.06,20.05c0,1.82-.41,3.53-1.07,5.15-1.08,2.64-3.2,4.52-5.97,5.3-3.15.88-6.48.87-9.62-.05-5.13-1.51-6.88-6.28-6.89-11.44l-.06-19.01,3.73-.03.04,19.33c0,3.36,1.13,6.71,4.33,7.81,2.47.85,5.18.82,7.62-.05,3.06-1.08,3.99-4.13,4.21-7.36V14.11Z"/>
        <path class="cls-1" d="M173.9,37.12l.08,4.79c-2.71,1.92-5.62,3-8.92,3.25-6.87.52-13.45-3.39-16.01-9.87-1.66-4.2-1.51-8.96.4-13.05,4.28-9.16,16.11-11.73,24.51-5.74l-.04,4.79c-4.81-5.53-12.89-6.19-18.2-1.39-2.72,2.46-3.94,5.83-3.97,9.47-.07,7.3,5.97,12.97,13.26,12.41,3.44-.24,6.39-1.87,8.89-4.66Z"/>
        <path class="cls-1" d="M286.33,35.06h-11.78s-3.97,9.33-3.97,9.33h-3.97s13.81-31.61,13.81-31.61l13.84,31.61-3.94.02-3.98-9.35ZM285.16,31.88l-4.74-11-4.79,11.06,9.53-.07Z"/>
        <g>
          <path class="cls-1" d="M374.7,23.33c2.74,7.81.37,17.99-8.39,20.39-1.87.45-3.68.63-5.6.64l-9.21.05V14.84s9.69.04,9.69.04l4.58.49c4.17.93,7.5,3.88,8.93,7.96ZM371.04,35.04c1.31-3.61,1.29-7.51-.03-11.01-1.35-3.34-4.12-5.33-7.66-5.67l-8.35-.2v22.82s8.72-.24,8.72-.24c3.43-.39,6.04-2.37,7.32-5.7Z"/>
          <polygon class="cls-1" points="399.78 29.8 387.72 29.82 387.71 41.08 399.79 41.1 399.75 44.39 384.09 44.4 384.09 14.84 399.74 14.84 399.77 18.05 387.72 18.07 387.71 26.49 399.74 26.5 399.78 29.8"/>
        </g>
      </g>
      <g>
        <g>
          <path class="cls-1" d="M22.41,58.89l16.27-5.75-11.31,2.98-14.59,4.1c-.3.09-.99.34-1.22.06-1.02-1.29-1.51-2.79-2.26-4.33l-6.9,2.19-1.83-5.24,23.37-6.98,6.69-2.02,12.12-3.58,13.34-3.99,7.77-2.28,8.85-2.65,16.4-4.86c2.29-.68,4.41-1.31,6.69-1.99l10.07-3.03,5.9-1.75,1.33,6.54-22.41,7.2,7.62-1.65,5.57-1.25,15.35-3.11.34,6.3-26.42,7.96,6.26-.69-1.04,5.39L3.34,72.59l-3.34-5.56c1.79-.48,3.34-1.24,5.03-1.86l7.07-2.59,10.31-3.68ZM39.8,52.74c-.31-.05-.54.09-.99.26.22.15.54.18.99-.26Z"/>
          <path class="cls-1" d="M44.77,33.72c-.61.12-1.19.62-1.92.48l-1.43-3.65c.8-.74,1.81-.8,2.68-1.41l-7.33,1.96-1.37-3.75,4.31-1.97c.55-.25,1.24-.15,1.53-.83l-2.92.68c-.41.1-1.38.78-1.6.22l-.89-2.31c-.12-.31-.21-.63-.3-1.06-.82.13-1.57.44-2.44.4-.78-1.21-.86-2.37-1.57-3.38l.79-.6c-.27-1.35-1.25-2.31-.92-3.06.09-.21.39-.31.7-.46l2.68-1.35,4.42-2.42c.48-.27,1.05-.34,1.28-1l-3.57.72c-.28.06-.9.55-1.05.18l-1.36-3.45c.63-.83,1.58-1,2.45-1.33.81-.31,1.49-.87,2.39-1.02-.09-1.03-.23-1.73-.1-2.68.81.19,1.4-.17,2.06-.33l3.11-.75,3.93-1.11c.86-.24,1.67-.49,2.62-.45l1.03,2.38c.18.21.84.05,1.09-.02l4.5-1.29,1.39,3.86-2.24,1.3,3.7-1.22.41,1.16c.53.81.99,1.6.87,2.61-.47.33-1.03.3-1.42.94,1.4-.29,2.47-1.26,3.89-1.05l.37,1.25c.23.8.89,1.41.83,2.36l-1.43.53c-1.05.73-2.1,1.17-3.29,1.57-.43.14-.79.64-1.26.76-.56.15-1.12.23-1.44.77l5.63-1.42c.7,1.15,1.15,2.3,1.52,3.63-.68.26-1.14.63-1.73,1-.17.1-.53.1-.68.21-.17.13-.07.56.03.8l1.13,2.73c.08.19.11.37.08.52-.06.23-.38.2-.57.3l-3.66,2,1.02,3.92-1.24.28c-1.64.63-3.3.81-4.98,1.28l-2.03.57c-2.59.73-5.06,1.45-7.7,1.98ZM59.89,9.76h-.13s.13,0,.13,0h.27s-.13,0-.13,0h-.14Z"/>
        </g>
        <g>
          <path class="cls-1" d="M74.03,81.24c-.23.12-.91.06-.76.58.22.13.63-.2.78-.28l17.08-4.59,1.83,5.17-4.49,2.15,1.49,3.98c-.51.36-1,.5-1.64.73l1.43,4.59-8.03,3.12,8.42-1.2,1.01,3.65c.16.57.46,1.08.29,1.7l-9.13,3.48c1.67.16,2.93-.27,4.52-.39l.56,5.54-26.63,3.08-.8.08c-.13-1.76-.75-3.43-1.2-5.33l4.32-1.71-7.06,1.03-1.67-5.54-5.11,1.77-2.13-5.11,13.21-6.23,1.29-.52c-.5-.27-.99.13-1.42.24l-11.04,2.88-1.89-5.1,8.4-4.53-10.38,3-3.26,1.03-1.91-5.15,14.5-6.12-13.52,3.11-1.44-5.61,9.03-3.67-12.57,3.11-1.36-5.35,45.7-11.71,8.55-2.19,1.7,5.29-15.86,6.3,5.37-1.21,8.16-1.91,1.65,5.29-4.95,2,1.5,3.99-12.56,6.56ZM61.87,90.7l-.1.1.1.1.1-.1-.1-.1Z"/>
          <path class="cls-1" d="M60.32,91.51l-.13-.28c.43-.11.92-.51,1.42-.24l-1.29.52Z"/>
          <path class="cls-1" d="M74.03,81.24l.02.3c-.15.08-.57.4-.78.28-.15-.52.53-.46.76-.58Z"/>
          <rect class="cls-1" x="61.8" y="90.73" width=".14" height=".14" transform="translate(-46.09 70.38) rotate(-45.02)"/>
        </g>
      </g>
    </g>
  </g>
</svg>