<?xml version="1.0" encoding="UTF-8"?>
<svg id="Layer_2" data-name="Layer 2" xmlns="http://www.w3.org/2000/svg" viewBox="0 0 449.8 76.27">
  <defs>
    <style>
      .cls-1 {
        fill: #fff;
      }
    </style>
  </defs>
  <g id="Layer_1-2" data-name="Layer 1">
    <g>
      <path class="cls-1" d="M449.8,55.93v2.15l-1.3.95-3.96-.43-2.4-.24-3.85-.22-5.41-.17-13.9-.25-7.06-.05-2.24.16-50.76,7.92-32.21,6.56,2.91.32,2.32.13,13.49,1.86c.23.03.44-.01.51.06s-.01.35-.12.39c-.1.03-.32-.18-.46-.18l-6.72-.18c-2.07-.05-4.2-.05-6.27,0l-6.11.17-3.6.23-2.64.23-7.19.91h-3.6c-1.38-.9-2.22-2.48-1.89-4.14s1.63-2.64,3.47-2.99c24.15-4.56,48.31-8.28,72.73-10.14l3.41-.26,3.1-.24,3.38-.22,4.09-.23,3.57-.21c.98-.06,1.93-.16,2.9-.18l5.95-.12,2.43-.23,2.6-.26,2.67-.21,2.88-.25,2.87-.24,3.36-.24,3.13-.23,4.07-.24,3.11-.19c.9-.06,1.77-.17,2.65-.19l5.03-.08c1.31-.02,2.62-.45,3.93-.05l1.1.8Z"/>
      <g>
        <path class="cls-1" d="M121.2,26.69l-3.39.08c-1.42.03-2.78.39-4.18.09l4.11-6.84,7.39.04-3.94,6.62Z"/>
        <g>
          <path class="cls-1" d="M224.83,54.84c-2.33,3.7-4.93,7.17-7.82,10.56l-4.52,4.59-2.52,1.92c.77.02,1.31,0,1.65.37s.24,1.01-.04,1.46-.96.52-1.43.24-.58-.89-.46-1.75c-1.04.13-1.76.84-2.79,1.29-1.56.67-3.64.97-5.03-.26-1.27-1.12-1.45-3.1-1.15-4.52l-2.41,1.92-2.63,1.94c-1.78,1.32-4.02,1.96-6.21,1.3-1.61-.49-2.73-2.04-2.78-3.67l-.11-3.1c-2.55,3-6.42,6.97-10.33,7.16-2.55.12-4.58-2.01-4.89-4.56-.57-4.73,1.63-10.19,3.4-15.16l-3.93.45c-2.02,3.3-3.98,6.55-6.45,9.55l-.98,1.19-4.59,4.49c-2.26,1.83-4.61,3.42-7.43,4.07-2.06.48-4.23.02-5.41-1.77-2.31-3.51-.47-9.89,1.45-13.93,2.97-6.26,7.17-11.93,12.32-16.54,2.21-1.98,4.64-3.43,7.28-4.51,1.14-.47,2.11-.52,3.33-.6,2.25-.14,4.23,1.14,4.67,3.55.74,4.09-.9,7.81-2.69,11.77.91.02,3.06.12,3.64-.97l3.43-6.48c4.95-9.35,10.79-18.06,17.7-26.06l3.36-3.63c1.02-1.11,1.95-2.14,3.11-3.17,3.09-2.76,6.03-5.62,9.52-7.9,2.88-1.88,7.5-4.2,9.67-2.26,1.9,1.69.37,6.41-1.26,9.22-.97.33-1.87.67-3.03.61l1.97-4.08c.51-1.06.83-2.24.27-3.4-1.82.45-3.25,1.5-4.55,2.71l-3.12,2.89c-3.01,2.79-5.64,5.76-8.21,9.05-6.61,8.47-12.28,17.46-17.36,27.04,2.83-1.61,5.11-3.52,7.35-5.74l10.19-10.1,2.04-2.32c1.7-1.94,3.37-3.79,4.86-5.95,1.07.07,1.95-.26,3.15-.25-2.86,4.18-5.92,7.94-9.46,11.47l-8.5,8.49c-3.71,3.71-7.87,6.66-12.21,9.62l-1.7,3.81c-1.45,3.27-2.55,6.55-3.01,10.13-.1.82.56,2.46,1.44,2.33,1.81-.27,3.15-1.81,4.13-3.19l5.07-7.17c2.76-3.91,5.26-7.85,8.46-11.4,1.18-1.31,2.21-2.54,3.56-3.66,3.32-2.76,8.21-6.89,12.24-4.76l2.09,1.9,1.02-1.79,7.99.11-10.93,18.85c-1.53,2.65-6.22,9.63-5.1,10.37s5.31-3.05,6.8-5.08l4.95-6.75,2.92.08ZM169.58,51.92c1.3-2.36,2.16-4.4,2.73-6.73.32-1.41.4-2.95-.47-4.14-1.59-2.17-7.4,1.98-7.18,5.53.16,2.65,2.35,4.92,4.92,5.34ZM196.73,66.29c.61.85,1.81.37,2.33-.11l2.42-2.2c3.06-3.79,5.52-7.86,8-12.08l5.97-10.12c.14-.45-.77-1.23-1.17-1.18-2.8.38-8.07,6.34-9.9,9.07l-3.75,5.61c-1.85,2.76-5.29,9.07-3.91,11ZM162.16,63.06c2.33-2.58,4.23-5.4,5.97-8.62-2.75-1.11-4.93-2.82-6.29-5.24-2.42,3.2-4.47,6.34-6.11,9.85-1.06,2.78-2.51,6.35-.33,7.63,2.01,1.18,4.82-1.64,6.76-3.63Z"/>
          <path class="cls-1" d="M123.16,67.1c3.77,3.32,8.5.8,12.17-2.32,3.34-2.83,5.95-6.23,8.19-9.99,1.69-2.84,2.76-5.86,3.38-9.1.44-2.31.02-4.54-1.98-4.61-1.62.41-3.12,1.27-4.07,2.67-2.35,2.8-3.8,6.06-4.44,9.47-3.98,1.75-6.98,4.29-10.11,7.49.47-7.11,3.64-15.08,9.07-19.57,2.46-2.04,5.33-3.6,8.57-3.86,1.08-.09,2.26-.03,3.12.49,4.64,2.78,2.16,11.78-.44,16.77-2.01,3.86-4.38,7.42-7.38,10.57-2.82,2.95-5.76,5.51-9.33,7.45-4.89,2.65-11.43,3.24-15.48-.57-2.56-2.41-3.84-5.66-4.21-9.2-.4-3.83.41-7.45,1.58-11.15,3.26-10.26,9.56-19.62,16.36-27.92.86-1.05,1.71-1.92,2.62-2.92,7.58-8.35,16.86-15.83,27.79-19.13,3.69-1.12,8.11-1.26,10.74,1.42,6.24-2.8,13.3-3.18,19.41-.12l10.21,5.1,2.63,1.52c-.08.78-.84.93-1.26,1.36l-3.48,3.51c-.39.4-.82,1.35-1.55,1.4l-10.05-6.06c-3.77-2.28-10.29-5.24-14.44-3.99.59,6.11-2.5,12.96-6.31,17.75-2.65,3.32-5.4,6.19-9.63,7.39-1.38.39-3.05.18-4.16-.8-1.35-1.18-1.47-4.33-1.13-5.47,2.59-8.68,8.97-15.39,16.69-20.05-.8-.33-1.72-.45-2.71-.2-4.6,1.14-10.47,5.35-14.17,8.62l-6.7,6.66-3.36,3.9c-5.96,6.93-10.92,14.47-14.71,22.83-2.18,4.81-3.47,9.74-3.84,14.89.27,2.26.74,4.35,2.42,5.82ZM153.15,28.26c.7.26,1.48.19,2.22-.23,7.17-4.12,12.63-12.65,12.87-21.25-2.6,1.13-4.6,2.76-6.67,4.54-2.99,2.58-5.35,5.71-7.38,9.12-1.63,2.74-3.51,6.9-1.04,7.82Z"/>
          <path class="cls-1" d="M213.67,20.23l-2.55.24c-1.19.11-2.32-.36-3.72-.19,1.61-2.61,3.44-4.73,5.33-6.99,3.5.27,6.64-.33,9.84-1.47,6.75-2.54,12.47-6.46,17.74-11.83-1.56,4.1-5.36,8.57-8.69,11.53-4.8,4.26-11.37,8.07-17.95,8.7Z"/>
        </g>
        <g>
          <path class="cls-1" d="M104.39,76.27h-.72c-6.28-4.28-18.75-7.56-24.9-2.82-1.03.79-2.02,1.63-2.45,2.82h-.48c-1.48-2.73-3.91-4.78-6.89-6.07-7.94-3.44-18.05-1.49-26.39.62l-7.68,1.94c-5.07,1.28-13.31,3.15-17.91,2.69-9.36-.92-15.81-6.01-16.79-15.57-.76-7.4,1.12-14.6,4.24-21.4,3.3-7.18,7.9-13.51,13.27-19.26,3.96-4.24,10.05-9.45,14.98-12.32S44.78.79,50.31,1.77c1.78.31,3.46,1.6,4.16,3.19,1.48,3.36-.31,7.49-2.66,10.25-1.28,1.5-3.59,2.2-4.74,1.38-1.68-1.2-1.14-3.92.71-6.09,1.04-1.22,2.42-1.82,3.97-1.74.51-.63.5-1.75.05-2.36-2.67-3.64-12.77,3.21-16.26,6.7l-4.3,4.32-2.56,2.74c-4.31,5.21-8.32,10.49-11.51,16.48s-5.4,11.64-6.27,18.09c-.23,1.72-.1,3.49.07,5.17.33,3.32,1.81,6.48,4.59,8.28,2.3,1.49,4.82,2.48,7.55,2.75l5.65-.02c3.25-.34,6.28-1.03,9.45-1.79l13.16-3.18c6.1-1.47,12.01-3,18.31-3.42h9.22c9.61.77,15.65,5.08,22.89,10.84l2.2,2.13c.25.25.39.52.4.79Z"/>
          <path class="cls-1" d="M26.6,55.41c-3.13-4.45-.24-12.25,2.41-17.04,3.58-6.46,9.87-13.62,16.45-17.05,1.95-1.01,4.06-1.77,6.21-1.64s3.94,1.46,4.35,3.63.15,4.55-.62,6.73l-1.31,3.73c2.94-.96,5.22-2.55,7.26-4.51l4.75-4.57c2.12-2.03,4.55-3.61,7.29-4.68,2.14-.83,6.01-.75,7.5.95,1.03,1.16,1.63,2.76,1.37,4.28-.81,4.82-4.62,9.21-7.05,8.02-.77-.38-1.36-1.19-1.32-2.21.08-2.53,2.63-5.43,5.44-5.33.42-.48.26-1.27.03-1.64-.97-1.51-3.98-.25-5.34,1.1l-4.67,4.67c-4,4.7-6.95,10.17-8.88,15.99-.55,1.66-.07,4.12,1.38,5.09,2.18,1.46,5.84-.91,8.16-3.02,4.5-4.1,8.09-8.95,11.67-13.89l4.21-5.15,2.54-2.73c.85-.91,1.8-1.68,2.75-2.51,3.77-3.29,9.53-6.59,12.73-2.28l1.02-1.3,7.79.11-16.21,27.38c-.32.54-.06,1.64.46,1.59,2.97-.31,8.92-7.89,11.28-11.09l2.98.03c-2.4,3.41-4.77,6.65-7.55,9.75l-4.8,4.76c-2.75,2.73-8.3,6-10.82,3.13-.98-1.12-1-2.56-.95-4.18-2.85,3.04-6.7,6.12-10.67,5.25-1.94-.43-3.04-2.08-3.17-4.03-.11-1.6.37-3.08.7-4.73l-1.28.95c-2.23,2.21-4.51,4.3-7.21,5.92-3.7,2.21-8.82,3.47-11.98.55-4.18-3.86-2.04-11.03.51-16.04l1.7-3.35-3.33.79-2.28,3.69c-2.81,4.55-6.04,8.64-10.09,12.15-2.29,1.98-4.66,3.59-7.61,4.4-2.02.55-4.45.2-5.77-1.68ZM89.11,45.71c2.23-2.86,3.97-5.86,5.83-9.02l7.46-12.63c-1.45-2.34-4.89.75-6.85,3.21l-5.42,6.8c-2.45,3.07-8.16,12.54-6.98,14.81.97,1.85,4.17-.89,5.95-3.17ZM50.77,33.89c1.78-2.99,3.95-9.33,1.19-10.32-3.09-1.1-7.22,3.75-6.5,6.47.61,2.3,2.98,3.51,5.3,3.85ZM42.55,46.06c2.13-2.27,3.79-4.64,5.37-7.2l1.51-2.46c-1.98-.4-3.79-1.4-5.43-2.8l-1.53-1.95c-2.97,4.24-6.86,9.81-7.43,14.7-.13,1.13.15,2.63,1.23,3.09,1.24.54,2.61-.16,3.52-.96l2.75-2.43Z"/>
        </g>
      </g>
      <g>
        <g>
          <path class="cls-1" d="M319.19,59.46c-2.11.39-4-.43-5.25-2.07l-15.72-20.62-.11,18.06c-.01,2.23-1.34,4.17-3.45,4.46-1.5.07-3,.01-3.93-1.2-.56-.74-1.15-1.87-1.15-2.92l.02-30.25c0-1.38.89-2.51,1.86-3.22,2.19-1.05,4.6-.35,6.13,1.66l15.92,20.84.07-18.86c0-1.18.64-2.15,1.22-3.12,1.56-1.24,3.97-1.49,5.65-.17,1.03.8,1.67,2.43,1.67,3.88v29.6c0,1.87-1.14,3.59-2.93,3.92Z"/>
          <path class="cls-1" d="M360.19,40.92c-.08,9.36-5.66,16.68-15.29,17.85l-12.81-.03c-2.21,0-3.66-2-3.66-4.26l.07-28.3c0-2.34,1.54-4.35,3.89-4.35h11.98c3.88.02,7.4,1.58,10.23,4.19,3.61,3.33,5.32,8.02,5.6,12.86l-.02,2.04ZM347.78,31.82c-1.34-1.08-3.01-1.86-4.79-1.89l-5.93-.08v21.03s4.89-.08,4.89-.08c3.5-.06,6.54-1.81,7.86-5.12,1.6-4,1.56-10.89-2.03-13.86Z"/>
          <path class="cls-1" d="M276.74,51.92l-13.5-.05-1.83,5.13c-.51,1.43-1.82,2.21-3.23,2.33-2.15.19-3.86-.82-4.39-2.93-.22-.89-.35-1.88.03-2.9l9.7-26.35c1.22-3.33,2.89-6.03,6.63-5.96,1.61.03,3.1.27,4.33,1.53.57.59,1.43,1.38,1.75,2.3l9.98,28.24c.47,1.33.47,2.84-.08,4.04-.71,1.56-2.47,2.27-4.05,2.18s-3-1.05-3.79-2.6l-1.55-4.96ZM274.15,43.91l-4.07-12.98-4.38,13.04,8.45-.06Z"/>
        </g>
        <path class="cls-1" d="M372.59,57.85c-.34.48-5.22,1.05-6.08.47-1.05-.72-1.53-2.55-1.54-3.96l-.1-27.76.41-2.27c.37-2.04,1.95-3.09,3.91-3.14,2.16-.06,3.62,1.03,4.16,3.17l.41,2.72-.09,26.8c0,1.4-.36,2.93-1.09,3.97Z"/>
        <g>
          <path class="cls-1" d="M406.51,55.5c-1.21.02-2.25.42-3.34.05l-14.28-18.79-.06,18.15c0,.67-.26,1.34-.56,1.87l-2.52.14-2.93.25c-.49.04-1.45.59-1.93,0-.39-.48-.67-1.44-.67-2.2l.08-30.21c0-1.29.97-2.41,1.82-3.04,2.2-1.05,4.61-.36,6.14,1.66l15.94,20.86.04-18.89c0-1.18.64-2.15,1.22-3.12,1.6-1.28,4.12-1.5,5.77-.07.94.82,1.55,2.36,1.55,3.73l.08,29.25-1.48.3-4.89.08Z"/>
          <path class="cls-1" d="M438.97,51.87h-13.56s-.87,2.66-.87,2.66c-1.53-.15-2.95.05-4.47.18-1.31.11-2.53-.05-3.97.41-.3-.96-.09-1.72.26-2.66l10.09-27.2c.27-.72.84-1.37,1.22-1.88,1.3-1.74,2.99-2.27,5.17-2.19,2.29.08,4.68,1.42,5.55,3.86l10.11,28.38-4.85.2c-1.38.06-2.7.18-4.13.14-.34-.52-.44-.97-.54-1.89ZM432.25,30.89l-4.39,13.07h8.56"/>
        </g>
      </g>
    </g>
  </g>
</svg>