<?xml version="1.0" encoding="UTF-8"?>
<svg id="Layer_2" data-name="Layer 2" xmlns="http://www.w3.org/2000/svg" viewBox="0 0 1082.91 492.45">
  <defs>
    <style>
      .cls-1 {
        fill: #fff;
      }
    </style>
  </defs>
  <g id="Layer_1-2" data-name="Layer 1" image-rendering="optimizeQuality" shape-rendering="geometricPrecision" text-rendering="geometricPrecision">
    <g>
      <path class="cls-1" d="M216.53,401.67c-11.58-23.93-25.42-45.93-43.73-65.13-7.32-7.68-14.99-14.97-24.62-19.34l-18.63-.48-.03,84.75-31.74-.23-.03-184.25c18.63-2.86,35.88-9.71,49.9-22.26,15.66-.65,30.73-.41,45.4,4.35,17.52,5.16,30.35,17.94,34.36,35.68,7.55,33.4-4.74,64.79-38.86,75.76,7.35,6.66,13.35,12.71,19.33,19.97,17.09,21.23,30.95,44.27,41.06,70.76l-32.4.41ZM177.05,223.15c-6.62-1.74-13.5-2.34-20.52-2.35l-27.01-.04v69.89s34.4-.33,34.4-.33c9.96-.1,19.73-4.52,25.59-12.57,11.33-15.57,10.45-49.46-12.47-54.59Z"/>
      <path class="cls-1" d="M363.65,186.45l-.2,76.07c-9.54-7.33-19.84-12.15-31.67-13.56l-.06-145.07c-1.19-10.32-1.77-19.54-7.75-29.04l29.47-11.51c4.9,6.16,6.59,12.96,8.47,20.49,14.26-19.85,38.59-25.57,62.54-20.92,18.4,3.57,32.87,15.94,39.08,33.86,5.81,16.75,6.82,34.74,3.03,52.03-6.48,29.6-30.72,49.62-60.48,52.41-9.78.92-18.36.11-26.94-5.19l-15.49-9.56ZM432.49,153.56c7.05-21.05,5.27-54.29-14.75-64.07-11.45-5.59-24.88-4.3-36.03,2.45-9.72,5.88-16.36,16.96-17.54,29.63l-.02,34.4c0,9.25,6.24,17.18,15.15,20,22.29,7.05,45.36,1.02,53.2-22.41Z"/>
      <path class="cls-1" d="M571.49,183.17c-16.35,19.5-48.64,23.83-70.91,14.6-13.42-5.56-20.84-17.74-22-31.98-1.29-15.85,5.15-29.93,18.66-38.46,9.85-6.23,20.45-10.89,32.13-12.71l38.03-5.93c-.69-12.5-9.1-21.54-21.54-23.39-17.98-2.68-35.63,1.42-52.14,9.63l-8.05-22.06c24.36-11.04,51.56-14.76,77.47-8.86,27.41,6.24,37.47,29.76,37.57,56.77l.15,41.85c.03,9.23,1.95,22.24,8.19,29.64l-29.49,7.67c-4.19-4.82-5.63-10.27-8.05-16.77ZM534.14,180.83c16.91.84,32.14-10.35,34.39-27.07l.25-25.03c-18.1,3.07-45.12,6.6-54.34,19.98-4.77,6.92-4.56,16.94.32,23.68,4.48,6.19,11.22,8.03,19.38,8.43Z"/>
      <path class="cls-1" d="M896.04,131.92c0,39.66-32.15,71.82-71.82,71.82s-71.82-32.15-71.82-71.82,32.15-71.82,71.82-71.82,71.82,32.15,71.82,71.82ZM859.76,153.4c4.82-14.84,4.52-30.82-.9-44.78-5.9-15.23-19.48-23.4-35.34-23.25-15.04.14-27.57,7.94-33.51,22.11-6.07,14.47-6.34,30.94-1.31,45.87,5.37,15.94,19.22,25.08,35.84,24.94,16.06-.13,29.96-8.74,35.21-24.88Z"/>
      <g>
        <path class="cls-1" d="M158.61,134.38c-7.36,27.07-26.24,47.04-51.78,56.7-14.05,5.19-28.16,7.84-43.35,7.86l-63.48.1V0s70.5.2,70.5.2c14.32.04,27.52,2.96,40.66,7.88,23.27,9.24,40.19,27.8,47,52.14,6.74,24.09,7.18,49.42.44,74.17ZM128.12,128.72c5.06-19.61,5.01-39.51.17-58.55-4.46-17.58-16.1-30.84-32.8-37.4-10.52-4.25-21.47-5.96-32.97-6.01l-32-.14v145.9s31.77-.13,31.77-.13c11.1-.05,21.56-2.17,31.95-5.86,16.98-6.38,29.18-19.57,33.88-37.79Z"/>
        <path class="cls-1" d="M317.73,131.92c0,39.67-32.16,71.82-71.82,71.82s-71.82-32.16-71.82-71.82,32.16-71.82,71.82-71.82,71.82,32.16,71.82,71.82ZM248.05,178.2c15.41-.77,27.61-9.13,32.81-23.26,5.45-14.79,5.38-31.41-.25-46.09-5.79-15.1-19.17-23.74-35.07-23.62-15.92.12-29.08,8.89-34.63,24.05-5.11,13.93-5.3,29.49-.7,43.64,5.38,16.57,20.02,26.17,37.85,25.28Z"/>
      </g>
      <path class="cls-1" d="M628.04,369.14l13.06,17.97c-5.28,5.27-11.42,9.1-18.63,11.63-43.17,15.14-97.17,1.96-107.83-45.02-3.61-15.89-2.92-32.13,2.46-47.44,12.42-35.35,49.36-49.01,84.76-39.9,32.85,10.2,44.2,39.92,42.08,73.42l-98.71-.04c1.27,16.48,10.78,30.84,25.97,37.42,18.92,6.97,39.93,4.4,56.85-8.02ZM612.64,319.25c-.55-7.99-2.14-12.77-4.48-18.13-4.68-10.23-14.45-15.47-25.63-15.43-21.52.07-32.74,11.75-35.88,33.55h65.99Z"/>
      <path class="cls-1" d="M725.04,290.32c-21.98.87-29.99,18.32-30.21,38.87l-.08,72.21h-31.73s-.05-92.55-.05-92.55c-.7-11.43-2.28-21.92-7.64-31.9l29.01-11.25c4.39,5.26,5.91,11.16,8.02,17.93,10.36-13.54,25.01-19.91,41.17-19.96,21.56-.07,40.34,7.08,48.7,27.33,3.38,8.19,5.16,16.65,5.18,25.82l.16,84.59-32.03.11-.08-81.59c-.97-8.23-2.26-16.24-7.79-22.3-5.61-6.15-13.95-7.65-22.63-7.3Z"/>
      <path class="cls-1" d="M749.49,198.99l-127.04.06-.08-18.43c20.98-32.69,45.02-62.3,72.2-90.96l-62.55-.37-.04-24.75,113.12-.04.18,19.27c-30.17,26.93-57.32,56.36-81.24,90.33l85.52.17-.07,24.73Z"/>
      <g>
        <path class="cls-1" d="M342.34,385.38c-15.89,18.67-44.11,22.99-66.73,16.36-16.36-4.8-25.61-18.42-26.42-34.98-2.17-44.29,50.86-51.51,88.79-55.86-.64-12.79-9.66-21.92-22.31-23.48-17.65-2.34-35.01,1.64-51.21,9.9l-8.13-22.07c23.83-11.05,50.9-14.57,76.6-9.12,28.98,6.15,38.4,30.52,38.52,58.65l.18,41.97,1.93,14.82c.65,5.01,2.93,8.87,6.34,13.13l-29.52,7.53c-4.42-4.6-5.9-10.39-8.05-16.85ZM308.46,383.11c15.63-.7,28.92-11.92,30.86-27.34l.26-24.59c-17.5,2.59-44.9,6.48-54.2,19.48-5.71,7.98-4.93,20.06,2.43,26.68,5.54,4.98,12.79,6.12,20.64,5.77Z"/>
        <path class="cls-1" d="M510.31,267.29c-11.43,47.33-28.34,91.53-49.92,134.12l-31.77-.07c-16.57-32.38-30.16-65.6-41.26-100.29l-8.83-34.12,31.88.06c8.19,33.54,19.38,65.58,34.08,97.65,15.13-32,26.1-64,34.4-97.64l31.43.29Z"/>
      </g>
      <path class="cls-1" d="M794.65,478.91c-2.59.72-5.71.44-9.17.4l-.32-20.86c-.06-4.12-1.82-7.84-6.09-7.98-3.2-.11-7.22,2.58-7.31,6.67l-.49,22.07-9.26.04-.07-36.36,8.48.04c.91,0,1.46,2.31,1.57,2.86,3.72-3.33,7.38-4.29,11.94-3.97,3.54.25,6.91,2.52,9.17,6.07,5.24-6.76,14.13-8.15,20.61-3.33,2.84,2.11,3.85,5.66,3.88,9.13l.21,25.46h-9.29c-.29-14.97,2.49-31.59-8.2-28.41-2.52.75-5.29,3.13-5.34,6.57l-.31,21.61Z"/>
      <path class="cls-1" d="M482.33,492.45l-9.33-.2v-49.42s8.42.06,8.42.06c.57,0,1.32,1.75,1.57,2.87,7.48-6.52,19.18-5.11,24.72,3.8,4.64,7.46,4.29,17.32-1.18,24.05-6.2,7.62-16.36,8.87-23.89,2.3l-.32,16.55ZM501.46,461.25c.16-6.55-4.37-10.77-9.48-10.87-5.85-.11-9.94,4.31-10.02,10.36-.08,6.08,4,10.65,10.02,10.69,4.71.03,9.34-4.21,9.48-10.19Z"/>
      <path class="cls-1" d="M656.42,476.38c-7.48,5.93-17.74,4.55-23.59-3.04-5.15-6.68-5.51-16.16-1.18-23.46,5.56-9.36,17.41-10.68,25.62-3.8l.14-17.23,9.14.03v50.46s-7.99-.11-7.99-.11c-.56-.05-1.37-1.42-2.14-2.85ZM657.61,460.28c-.32-6.42-5.08-10.26-10.54-9.89-5.03.34-8.95,4.77-9.04,10.37-.1,5.89,4.43,10.95,9.93,10.74s9.97-4.84,9.65-11.22Z"/>
      <path class="cls-1" d="M621.07,479.11l-8.37.12c-.58,0-1.46-1.56-1.68-2.98-7.87,6.66-19.68,4.4-25.12-5.03-3.5-6.07-3.59-14.07-.32-20.34,5.01-9.59,16.93-12.24,25.45-5.21.17-.48.69-2.69,1.64-2.7l8.42-.15-.03,36.29ZM612.14,461.15c.19-6.56-4.44-11-10.11-10.77s-9.37,4.51-9.46,10.42c-.09,5.71,4.13,10.49,9.44,10.68s9.94-4.07,10.13-10.33Z"/>
      <path class="cls-1" d="M862.84,478.8c-2.81.91-5.84.36-8.96.49l-.72-3.53c-7.4,7.05-19.37,5.28-25.09-3.67-4.18-6.54-4.21-15.35-.36-22.04,2.6-4.51,7.01-7.21,10.77-7.94,5.91-1.15,10.57.48,14.59,3.93,0-1.39.85-3.18,1.47-3.18h8.2s.1,35.94.1,35.94ZM853.79,461.28c.22-7-4.91-11.48-10.77-10.9-5.27.52-9.2,5.48-8.71,11.36s4.55,9.77,9.73,9.78,9.56-4.05,9.75-10.24Z"/>
      <path class="cls-1" d="M1082.85,478.8c-2.8.93-5.9.37-8.95.49l-.71-3.48c-7.3,6.89-18.76,5.28-24.62-3.25-4.52-6.57-4.74-15.51-.71-22.5,5.4-9.36,17.41-10.91,25.16-4.3.11-1.23.89-2.91,1.53-2.91h8.2s.1,35.93.1,35.93ZM1073.96,461.87c.57-6.93-4.17-11.68-10-11.49s-9.95,5.11-9.51,11.4c.38,5.36,4.6,9.65,9.63,9.69s9.41-3.84,9.88-9.6Z"/>
      <path class="cls-1" d="M532.67,471.28c8.48,2.66,10.72-6.73,19.71.7-3.35,5.65-9.27,7.91-15.82,8.09-11.07.31-19.5-7.3-19.86-18.33s7.57-19.92,18.8-20.08c12.21-.18,20.9,9.6,19.39,21.83l-28.88.03c.6,4.33,3.57,6.78,6.65,7.75ZM545.79,456.22c-1.97-4.58-5.85-6.49-9.75-6.43s-7.83,1.75-9.57,6.46l19.32-.02Z"/>
      <path class="cls-1" d="M712.51,460.93c0,10.63-8.62,19.25-19.25,19.25s-19.25-8.62-19.25-19.25,8.62-19.25,19.25-19.25,19.25,8.62,19.25,19.25ZM703.35,460.92c0-5.6-4.54-10.13-10.13-10.13s-10.13,4.54-10.13,10.13,4.54,10.13,10.13,10.13,10.13-4.54,10.13-10.13Z"/>
      <path class="cls-1" d="M465.52,460.93c0,10.63-8.62,19.26-19.26,19.26s-19.26-8.62-19.26-19.26,8.62-19.26,19.26-19.26,19.26,8.62,19.26,19.26ZM456.34,460.92c0-5.59-4.53-10.13-10.13-10.13s-10.13,4.53-10.13,10.13,4.53,10.13,10.13,10.13,10.13-4.53,10.13-10.13Z"/>
      <path class="cls-1" d="M948.71,460.92c0,10.63-8.62,19.25-19.25,19.25s-19.25-8.62-19.25-19.25,8.62-19.25,19.25-19.25,19.25,8.62,19.25,19.25ZM926.75,470.91c7.33,1.9,12.46-3.92,12.49-9.87.04-6.89-5.59-11.94-12.55-10.11-4.84,1.27-7.08,5.85-6.99,10.27.07,3.93,2.23,8.46,7.05,9.71Z"/>
      <path class="cls-1" d="M906.63,443.11l-22.43,49.08-9.59.13,7.15-15.81-13.59-33.21c2.92-1.03,5.94-.56,9.45-.49l9.24,21.57,10-21.34c3-.38,5.51-.65,9.77.07Z"/>
      <path class="cls-1" d="M1009.85,479.51c-6.81,1.72-13.52-.3-17.42-5.69l5.96-6.4c4.08,4.31,8.93,5.49,10.74,2.42.64-1.09.24-2.69-1.23-3.52l-8.92-4.99c-3.21-1.79-4.89-5.1-5.12-8.29-.24-3.38.95-6.82,4.1-8.93,6.44-4.3,15.07-2.69,19.82,3.6l-5.9,6.03c-1.91-1.96-3.71-3.24-6.35-3.45-1.43-.12-2.45.87-2.6,1.93-.11.77.63,1.85,1.77,2.45l8.4,4.43c4.22,2.22,5.83,6.36,5.31,11.05-.44,3.97-3.41,8.05-8.58,9.35Z"/>
      <path class="cls-1" d="M1036.39,450.83l-.1,28.29-9.27.16-.04-28.31c-1.86-.06-2.96-.14-3.86-.47-1.32-.47-1.15-6.21-.61-7.1.47-.77,3.04-.75,4.14-1.04l.36-13.03,9.28-.02.36,13.09,4.34.49c.79.09.89,6.6.48,7.26-.48.77-2.71.76-5.07.68Z"/>
      <path class="cls-1" d="M963.64,478.95l-9.64.25v-36.24c3.99-.64,7.1-.86,9.44,1.85,2.73-3.11,6.46-3.86,10.39-2.15-.83,2.66-1.32,5.56-2.79,7.56-1.37.26-4.04-.3-5.26,1.13-.84.98-1.58,2.81-2.02,4.69l-.11,22.9Z"/>
      <path class="cls-1" d="M727.28,479.13l-9.28.11v-36.35c3.94-.55,6.97-.72,9.34,1.82,2.78-3.08,6.49-3.68,10.29-2.06l-2.92,8.08c-1.87-.63-3.91-.5-5,.49-.92.84-1.99,2.78-2.03,4.67l-.41,23.24Z"/>
      <path class="cls-1" d="M569.89,478.81c-2.82.95-5.91.45-9.33.47l-.05-36.39c2.54-.22,4.58-.44,7,.01.61.12,1.33,1.72,1.51,3,2.44-3.79,7.1-5.33,11.33-3.04-1.14,2.41-1.38,5.55-3.07,7.42-1.28.12-3.64-.18-4.78.75-.81.67-1.62,2.17-2.06,3.85l-.56,23.93Z"/>
      <rect class="cls-1" x="977.53" y="442.74" width="9.24" height="36.49"/>
      <circle class="cls-1" cx="982.28" cy="433.79" r="6.03"/>
      <path class="cls-1" d="M1020.77,102.58l61.9-.04.05,18.25h-25.78c1.27,13.83-1.37,27.04-8.76,39.49,10.45,6.82,21.53,12.23,33.95,16.24l-6.2,20.68c-15.4-4.37-28.29-11.51-41.6-19.62-19.73,18.08-48.3,24.32-73.27,14.89-14.4-5.44-24.79-17.08-28.91-29.43-9.04-27.07,5.75-50.53,30.66-65.34-4.26-16.71,1.2-34.51,15.88-43.8,19.23-12.17,49.87-7.83,60.39,13.15l-15.03,9.36c-8.04-12.24-25.93-15.17-36.54-4.69-6.35,6.27-6.3,16.46-3.48,24.45,7.25,20.5,29.56,39.59,47.36,53.14,5.06-8.95,6.3-18.19,5.71-28.24l-16.32-.34v-18.15ZM1017.99,166.26c-19.61-14.74-35.71-31.04-48.18-51.46-9.68,6.67-16.17,15.65-17.43,26.87-.84,9.67,2.09,19.24,10.04,25.32,15.94,12.18,39.27,12.49,55.58-.73Z"/>
      <g>
        <path class="cls-1" d="M1045.34,385.34c-15.65,18.73-44.22,23.01-66.64,16.42-15.93-4.68-25.23-17.83-26.35-33.96-3.14-45.05,50.37-52.45,88.77-56.96-.61-11.95-8.79-21.13-20.79-23.15-18.12-3.04-36.03,1.37-52.7,9.47l-8.15-21.93c23.77-11.05,50.73-14.5,76.47-9.13,27.2,5.68,38.45,28.87,38.5,55.65l.08,38.96c.02,11.65,1.22,25.27,8.39,33.98l-29.54,7.5c-4.35-4.59-5.7-10.42-8.04-16.86ZM1009.19,383.16c16.2.28,30.65-10.54,33.05-26.5l.42-25.67-21.13,3.81c-14.59,2.63-34.24,9.6-36.33,23.5-1.05,6.95.31,14.3,5.65,19.05,4.91,4.37,11.01,5.68,18.35,5.8Z"/>
        <path class="cls-1" d="M871.04,290.4c-21.34,1.21-28.96,18.63-29.25,38.6l-.04,72.4-31.71-.11-.21-91.44c-.03-11.49-2.05-22.15-7.49-32.79l28.93-11.42c4.3,5.15,5.68,10.57,7.94,17.87,10.19-12.9,24.7-19.93,41.3-19.87,8.49.03,16.46.82,24.36,3.8,21.12,7.95,29.04,28.07,29.61,50.38l.06,83.4-31.96.31-.34-81.61c-.03-8.37-2.51-16.89-8.08-22.75-5.79-6.1-14.48-7.27-23.12-6.78Z"/>
      </g>
    </g>
  </g>
</svg>