<?xml version="1.0" encoding="UTF-8"?>
<svg id="Layer_2" data-name="Layer 2" xmlns="http://www.w3.org/2000/svg" viewBox="0 0 231.19 113.14">
  <defs>
    <style>
      .cls-1 {
        fill: #fff;
      }
    </style>
  </defs>
  <g id="Layer_1-2" data-name="Layer 1">
    <g>
      <path class="cls-1" d="M55.1,82.2c-8.6-.76-14.34.29-15.38-6.71-.58-3.86,1.32-8.23,6.21-8.29l17.85-.21c2.87-.03,5.32.83,6.75,2.26,1.69,1.69,2.08,4.24,1.98,7.19l-1.03,30.18c-10.97,6.47-24.41,7.24-36.75,6.04C13.17,110.58.21,93.79,0,72.94c-.21-21.32,12.84-38.68,34.69-41.38,20.92-2.58,41.85,3.45,36.47,16.04-2.51,5.89-7.17,6.42-13.48,3.87-8.89-3.59-21.07-4.85-28.88,2.28-9.47,8.65-9.7,26.81-1.04,36.12,6.99,7.52,18.43,6.6,27.07,4.34,1.03-4.53.84-8.38.25-12Z"/>
      <path class="cls-1" d="M105.77,79.2c-2.17,5.01-1.16,10.63-.95,16.51,20.43,1.29,36.92-4.44,37.24,7.97.06,2.37-.94,7.68-4.63,7.71l-43.62.3c-5.06.03-8.81-3.91-8.81-8.93v-61.25c0-4.95,3.75-9.09,8.78-9.08l42.12.06c4.18,0,5.81,3.72,6.14,6.84.31,2.85-.68,8.33-5.11,8.42l-32.15.63.03,14.59,29.8.88c3.66.11,4.71,4.33,4.97,6.61,1.42,12.63-13.03,8.53-33.81,8.75Z"/>
      <path class="cls-1" d="M116.52.02c22.53-.65,65.82,14.5,65.5,18.51-.09,1.18-1.63,2.93-4.38,2.46-43.22-7.34-84.59-3.48-130.04-1.13C68.75,6.03,93.23.7,116.52.02Z"/>
      <path class="cls-1" d="M208.74,96.48l-36.1-.61-5.52,11.86c-2.11,4.53-6.52,5.47-10.99,5.19-3.29-.2-9.27-4.65-6.98-9.65l29.95-65.5c1.98-4.33,6.6-6.48,10.12-6.67,4.39-.24,9.43,1.91,11.66,6.71l28.82,61.96c1.78,3.83,2.2,7.9-.06,10.42-2.42,2.7-7.2,3.65-11.2,2.17-5.59-2.07-8.09-8.19-9.7-15.88ZM200.81,79.67l-10.98-25.6-10.72,25.85,21.7-.24Z"/>
    </g>
  </g>
</svg>