<?xml version="1.0" encoding="UTF-8"?>
<svg id="Layer_2" data-name="Layer 2" xmlns="http://www.w3.org/2000/svg" viewBox="0 0 235.29 317.66">
  <defs>
    <style>
      .cls-1 {
        fill: #fff;
      }
    </style>
  </defs>
  <g id="Layer_1-2" data-name="Layer 1" image-rendering="optimizeQuality" shape-rendering="geometricPrecision" text-rendering="geometricPrecision">
    <g>
      <path class="cls-1" d="M21.42,256.57c-7.5,0-12.81-4.92-16.79-9.88-5-6.24-5.1-14.57-4.21-22.71L194.6,7.67c6.66-7.42,16.42-9.42,25.63-6,7.79,2.89,15.06,10.59,15.05,20.78l-.06,212.09c0,10.86-9.69,21.82-20.87,21.83l-192.94.2Z"/>
      <path class="cls-1" d="M110.42,84.9L.11,207.5.18,22.6C.18,11.98,8.31,3.8,16.3,1.24c10.96-3.51,19.8.77,26.96,8.75l67.16,74.91Z"/>
      <g>
        <path class="cls-1" d="M99.21,316.5l.02-36.46,18.88.31c3.86.06,5.77,4.36,6.02,6.82.41,4.2-.48,6.92-3.68,10.19,5.07,3.03,6.48,7.08,5.54,12.1-1.2,6.43-7.33,6.85-11.54,6.85l-15.23.19ZM116.56,295.84c3.35-.12,4.15-4.31,4.06-6.83-.07-1.94-1.4-5.32-4.07-5.37l-13.87-.26v12.96s13.88-.51,13.88-.51ZM117.12,313.31c4.58-.05,5.89-4.71,5.36-8.17-.48-3.14-3.31-5.46-7.02-5.5l-12.79-.14.02,13.98,14.44-.17Z"/>
        <path class="cls-1" d="M70.06,317.15c-4.34,0-7.16-1.05-7.16-1.05-7.2-2.86-10.63-10.18-10.7-17.61-.1-10.61,7.18-18.81,17.03-19.1,9.92-.29,17.58,6.48,18.56,16.89.81,8.61-3.08,17.24-11.63,20.31,0,0-1.76.56-6.1.56ZM84.28,298.91c.25-9.45-6.22-16.36-14.84-16.12-7.9.22-13.61,7.3-13.61,15.57,0,8.73,5.32,15.4,13.58,15.8,8.15.4,14.63-6.04,14.87-15.25Z"/>
        <path class="cls-1" d="M148.08,317.65c-7.03.32-12.34-4.36-12.34-4.36-1.07-.65-.98-1.69-1.29-2.37-.43-.94,1.37-2.42,2.19-1.61,4.75,4.72,11.67,6.69,17.47,2.65,1.83-1.27,2.33-3.82,1.69-5.86-.47-1.52-1.8-3.34-3.99-4.17l-9.29-3.5c-5.02-1.89-7.67-6.31-6.59-11.3,1-4.64,5.33-7.56,10.62-7.61,4.85-.05,9.3.62,12.41,4.55.57.73.31,2.39-.42,2.76-2.09,1.06-7.52-6.83-16.15-2.68-2.36,1.14-3.16,3.46-2.94,5.73.19,1.95,1.56,3.99,3.98,4.87l9.4,3.4c4.73,1.71,7.48,5.69,7.01,10.5-.63,6.44-4.75,8.68-11.77,9Z"/>
        <path class="cls-1" d="M37.66,317l-.69-28.33-13.08,17.99-13.02-18.86-.18,26.54c0,.88-.33,2.08-.76,2.43-.52.43-2.59.28-2.59-.71l.13-35.79c.95-.76,2.82.16,3.42,1.04l13.28,19.54,13.36-19.67c.59-.86.99-1.25,2.04-1.17.64.05,1.55.44,1.55,1.9v33.04c.01,1.12-.78,2.7-3.47,2.05Z"/>
        <path class="cls-1" d="M223.31,306.6l-16.52-.04-4.41,10.36c-.98.05-1.7.07-2.12-.08-.48-.18-.81-1.48-.45-2.36l13.83-33.88c.34-.83,1.62-.79,2.09-.66.52.15,1.07.72,1.45,1.65l13.27,32.53c.42,1.03.74,2.25-.11,2.65-1.18.55-2.46.2-3.05-1.13l-3.98-9.03ZM222.02,302.51l-6.94-16.59-7.03,17.19c5.32.12,9.51.87,13.97-.61Z"/>
        <path class="cls-1" d="M183.76,316.31c0,.96-3.05.87-3.06.01l-.21-33-11.85-.21c-.66-.3-.8-2.08-.41-3.12l27.5.18c.68,0,.7,2.95-.25,2.98l-11.45.32-.28,32.85Z"/>
      </g>
    </g>
  </g>
</svg>