<?xml version="1.0" encoding="UTF-8"?>
<svg id="Layer_2" data-name="Layer 2" xmlns="http://www.w3.org/2000/svg" viewBox="0 0 183.51 54.59">
  <defs>
    <style>
      .cls-1 {
        fill: #fff;
      }
    </style>
  </defs>
  <g id="Layer_1-2" data-name="Layer 1">
    <g>
      <polygon class="cls-1" points="19.08 27.29 19.08 27.78 19.08 27.95 19.08 28.67 19.08 28.97 20.77 28.97 20.77 28.67 20.77 27.95 20.77 27.29 20.53 27.29 19.08 27.29 19.08 27.29"/>
      <polygon class="cls-1" points="22.93 27.29 22.93 27.95 22.93 28.67 22.93 28.97 24.61 28.97 24.61 28.67 24.61 28.24 24.61 27.95 24.61 27.29 23.85 27.29 22.93 27.29 22.93 27.29"/>
      <polygon class="cls-1" points="21.31 20.15 21.31 21.83 22.99 21.83 22.99 20.15 22.86 20.15 21.42 20.15 21.31 20.15 21.31 20.15"/>
      <path class="cls-1" d="M37.37,12.93c-.28-.28-.73-.29-1.01-.02l-2.88,2.76s-.82.76-1.77.76c-.49,0-.94-.21-1.37-.63-1.38-1.38-1.49-4.7-1.41-5.87.01-.2-.06-.39-.19-.54-.14-.15-.33-.23-.52-.23h-5.35v-2.08h6.4c.4,0,.72-.32.72-.72V.74c0-.4-.32-.72-.72-.72h-6.95c-.05-.01-.11-.02-.17-.02-.4,0-.72.32-.72.72v8.45h-5.4c-.2,0-.39.08-.52.23-.14.14-.21.34-.19.54.08,1.16-.03,4.48-1.41,5.87-.43.43-.87.63-1.37.63-.95,0-1.76-.76-1.77-.76l-2.88-2.76c-.29-.27-.74-.27-1.01.02L.2,19.77c-.14.15-.21.34-.2.55.01.2.11.39.27.52.74.6,3.05,3.13,3.91,4.1,1.51,2.09,1.14,3.74.58,6.23-.35,1.54-.74,3.29-.74,5.5,0,4.69,2.85,9.03,8.47,12.9,3.46,2.38,8.18,4.48,9.17,4.91,0,0,.02.01.03.02.12.08.25.11.39.11,0,0,.02,0,.03,0,.14,0,.29-.04.41-.12h0c.95-.41,5.71-2.52,9.19-4.92,5.62-3.87,8.47-8.21,8.47-12.9,0-2.21-.39-3.96-.74-5.5-.56-2.49-.93-4.14.58-6.23.86-.96,3.17-3.49,3.91-4.09.16-.13.25-.32.27-.52.01-.2-.06-.4-.2-.55l-6.66-6.84h0ZM22.87,1.46h5.67v4.19h-5.67V1.46h0ZM22.86,18.46h2.17v5.51h-5.4v-5.51h3.22ZM24.85,32.9c-.53-.93-1.52-1.56-2.67-1.56s-2.14.63-2.67,1.56c-.25.44-.4.96-.4,1.51v5.63c-.25-.1-.5-.2-.76-.32-.23-.1-.45-.19-.67-.26v-14.05h8.99v13.99c-.35.13-.7.29-1.05.48-.13.07-.26.13-.38.19v-5.66c0-.55-.14-1.06-.4-1.5M23.81,34.41v6.15c-.47.11-.95.17-1.43.17-.58,0-1.18-.08-1.82-.23v-6.08s0-.04,0-.05c0-.04,0-.08,0-.12.09-.81.78-1.45,1.61-1.45.89,0,1.62.73,1.62,1.62M5.46,36.66c0-2.05.38-3.72.71-5.19.58-2.57,1.08-4.79-.85-7.42-.01-.02-.03-.04-.04-.05-.11-.12-2.26-2.53-3.52-3.75l5.65-5.8,2.36,2.26c.05.05,1.23,1.17,2.76,1.17.88,0,1.68-.36,2.39-1.06,1.63-1.63,1.85-4.76,1.85-6.21h4.66v6.41h-2.5c-.4,0-.72.32-.72.72v6.23h-.89l-5.3-5.3c-.28-.28-.74-.28-1.02,0-.03.03-.06.07-.08.1l-2.9,2.91c-.28.28-.28.74,0,1.02l2.37,2.37c.13.14.32.21.51.21s.37-.08.51-.21l2.49-2.49,2.38,2.38v4.68l-4.25-4.25c-.28-.28-.74-.28-1.02,0-.03.03-.06.07-.08.1l-2.9,2.9c-.28.28-.28.74,0,1.02l2.37,2.37c.13.13.32.21.51.21.08,0,.16-.02.24-.04-.04.03-.09.06-.13.1-.03.03-.06.07-.08.1l-2.9,2.9c-.28.28-.28.74,0,1.02l2.37,2.37c.13.14.32.21.51.21s.37-.07.51-.21l2.49-2.49,2.38,2.38v.79c-.22-.02-.43-.04-.65-.04-1.44,0-2.6.55-3.71,1.07-.61.29-1.18.56-1.8.75-.34.1-.74.16-1.18.16-.91,0-1.86-.22-2.64-.47-.54-1.28-.81-2.6-.81-3.94M12.85,21.55l-1.98,1.97-1.35-1.35,1.97-1.97,1.35,1.35h0ZM12,32.04c-.2-.2-.49-.26-.75-.17.05-.03.09-.06.13-.1l2.49-2.49,2.38,2.38v4.63l-4.25-4.25h0ZM12.85,34.93l-1.98,1.98-1.35-1.35,1.97-1.97,1.35,1.35h0ZM10.87,30.25l-1.35-1.35,1.97-1.97,1.35,1.35-1.98,1.97h0ZM30.92,48.36c-3.23,2.22-7.62,4.2-8.8,4.72-1.13-.49-5.16-2.31-8.33-4.4,1.15-.44,2.34-.59,3.99.14.5.22.99.41,1.46.57.29.1.58.19.86.26.37.09.73.17,1.08.22.67.1,1.31.11,1.94.05.37-.03.75-.1,1.11-.19.3-.07.59-.16.89-.28.39-.14.79-.31,1.18-.52,1.52-.8,2.91-1.03,4.8-.7-.06.04-.12.08-.18.13M32.63,47.1c-2.88-.76-4.84-.57-7,.56-.13.07-.26.13-.38.19-.24.11-.48.21-.72.29-.24.08-.48.15-.72.21-1.03.24-2.08.21-3.25-.07-.23-.06-.47-.12-.72-.2-.23-.08-.47-.16-.72-.26-.25-.09-.5-.2-.76-.31-2.58-1.15-4.39-.52-5.97.2-.69-.51-1.32-1.03-1.91-1.55.01,0,.02,0,.03,0,.72-.22,1.37-.53,1.99-.83,1.22-.58,2.31-1.09,3.74-.88.23.03.47.09.72.16.22.07.46.15.7.26.03.02.07.03.1.04.46.21.91.38,1.35.53.15.05.3.1.44.15.09.03.18.05.28.08.24.07.48.13.72.18,1.14.24,2.21.27,3.25.07.24-.04.48-.1.72-.17.16-.05.32-.1.48-.15.08-.03.16-.06.24-.09.35-.13.7-.29,1.05-.48.1-.06.21-.11.31-.16.26-.13.52-.23.79-.33.24-.09.48-.15.72-.21,1.56-.35,3.25-.11,5.75.74.27.09.53.17.79.23-.61.61-1.28,1.21-2.03,1.8M35.81,44.05c-.45-.06-.94-.17-1.47-.35-2.6-.88-4.48-1.16-6.21-.84-.24.04-.48.1-.72.17-.24.07-.48.15-.72.24-.35.14-.7.29-1.05.48-.13.07-.26.13-.38.19-.16.07-.33.15-.49.21-.08.03-.15.06-.23.08-.24.08-.48.15-.72.21-1.03.24-2.08.21-3.25-.07-.23-.06-.47-.12-.72-.2-.02,0-.03-.01-.05-.02-.22-.07-.44-.15-.67-.24-.25-.1-.5-.2-.76-.31-.23-.1-.45-.18-.67-.26-.25-.09-.49-.15-.72-.21-.25-.06-.49-.1-.72-.12-1.76-.19-3.12.45-4.36,1.03-.61.29-1.18.56-1.8.75-.28.08-.58.13-.89.15-.81-.86-1.49-1.73-2.04-2.61.56.11,1.16.19,1.75.19s1.12-.07,1.6-.22c.72-.22,1.37-.52,1.99-.82,1.02-.48,1.97-.93,3.09-.93.21,0,.43.02.65.05.24.03.47.09.72.16.23.07.47.16.72.27.03.01.06.02.08.03.47.21.92.38,1.35.53.25.08.48.16.72.22.24.07.48.13.72.18.63.13,1.23.2,1.82.2.48,0,.96-.04,1.43-.13.24-.04.48-.1.72-.17.24-.07.48-.15.72-.24.35-.13.7-.29,1.05-.48.13-.07.25-.13.38-.19.24-.12.48-.21.72-.3.24-.08.48-.15.72-.21.46-.1.93-.16,1.42-.16,1.15,0,2.53.28,4.33.89.97.33,1.91.5,2.82.5.27,0,.52-.02.76-.04-.44.82-.99,1.62-1.65,2.41M38.95,23.99s-.03.04-.04.05c-1.92,2.63-1.42,4.85-.85,7.42.33,1.47.71,3.14.71,5.19,0,1.15-.21,2.28-.6,3.39-.4.11-.89.2-1.48.2-.75,0-1.54-.14-2.36-.42-1.98-.67-3.46-.97-4.79-.97-.48,0-.95.04-1.42.13v-.65l2.39-2.39,2.49,2.49c.14.14.32.21.51.21s.37-.07.51-.21l2.37-2.37c.28-.28.28-.74,0-1.02l-2.9-2.9s-.05-.07-.08-.1c-.04-.04-.08-.07-.13-.1.08.03.16.04.24.04.19,0,.37-.08.51-.21l2.37-2.37c.28-.28.28-.74,0-1.02l-2.9-2.9s-.05-.07-.08-.1c-.28-.28-.74-.28-1.02,0l-4.26,4.26v-4.68l2.39-2.39,2.49,2.49c.14.14.32.21.51.21s.37-.08.51-.21l2.37-2.37c.28-.28.28-.74,0-1.02l-2.9-2.91s-.05-.07-.08-.1c-.28-.28-.74-.28-1.02,0l-5.3,5.3h-.6v-6.23c0-.4-.32-.72-.72-.72h-2.89v-6.41h4.61c0,1.45.21,4.58,1.85,6.21.7.7,1.5,1.06,2.39,1.06,1.53,0,2.71-1.12,2.76-1.17l2.36-2.26,5.65,5.8c-1.26,1.22-3.42,3.63-3.52,3.75M33,31.77s.08.07.13.1c-.25-.09-.54-.03-.75.17l-4.26,4.25v-4.63l2.39-2.39,2.49,2.49h0ZM31.53,28.27l1.35-1.35,1.97,1.97-1.35,1.35-1.98-1.97h0ZM34.86,35.56l-1.35,1.35-1.98-1.98,1.35-1.35,1.97,1.97h0ZM31.53,21.55l1.35-1.35,1.97,1.97-1.35,1.35-1.98-1.97h0Z"/>
      <polygon class="cls-1" points="59.54 20.05 59.57 20.05 63.29 26.55 64.8 26.55 68.52 20.05 68.55 20.05 68.55 29.17 70.86 29.17 70.86 15.57 68.54 15.57 64.07 23.71 64.04 23.71 59.55 15.57 57.23 15.57 57.23 29.17 59.54 29.17 59.54 20.05 59.54 20.05"/>
      <path class="cls-1" d="M80.12,24.29c0,.49-.07.93-.2,1.32-.13.4-.31.72-.53.97-.22.25-.48.44-.77.58-.29.13-.59.2-.91.2-.33,0-.61-.04-.83-.11-.23-.08-.41-.21-.57-.4-.16-.19-.27-.43-.34-.75-.07-.31-.11-.7-.11-1.17v-5.1h-2.14v5.68c0,.68.08,1.26.25,1.76.17.5.41.89.72,1.18.31.29.68.51,1.09.65.41.14.89.21,1.42.21.56,0,1.08-.12,1.58-.35.5-.23.93-.57,1.3-1.01h.03v1.21h2.14v-9.34h-2.14v4.46h0Z"/>
      <path class="cls-1" d="M87.1,24.47c0-.45.06-.85.17-1.21.11-.36.28-.66.49-.9.21-.24.47-.42.76-.54.3-.12.63-.18.99-.18.34,0,.62.04.86.13.24.09.45.23.63.42.18.2.32.46.4.8.09.34.13.75.13,1.23v4.96h2.14v-5.51c0-1.35-.3-2.35-.91-3.01-.61-.65-1.45-.98-2.52-.98-.61,0-1.19.12-1.73.37-.54.24-1.01.59-1.4,1.05h-.03v-1.28h-2.14v9.34h2.14v-4.69h0Z"/>
      <path class="cls-1" d="M97.53,18.43c.26,0,.49-.06.71-.19.22-.13.4-.3.53-.52.13-.22.2-.46.2-.71,0-.39-.14-.72-.43-1-.28-.28-.62-.42-1.01-.42s-.75.14-1.03.42c-.28.28-.42.61-.42,1.01s.14.73.42,1.01c.28.27.63.41,1.03.41"/>
      <polygon class="cls-1" points="96.45 19.83 98.58 19.83 98.58 29.17 96.45 29.17 96.45 19.83 96.45 19.83"/>
      <path class="cls-1" d="M107.95,26.68c-.12.1-.26.19-.41.28-.15.08-.31.16-.48.22-.17.06-.35.11-.55.15-.2.03-.39.05-.59.05-.54,0-1.02-.12-1.44-.36-.42-.24-.75-.58-.98-1.01-.23-.44-.35-.94-.35-1.51s.11-1.06.35-1.49c.23-.43.55-.77.97-1.01.42-.24.9-.36,1.45-.36.49,0,.94.09,1.34.28.4.18.74.44,1.02.77l1.46-1.26c-.46-.56-1.03-.99-1.74-1.29-.7-.3-1.43-.45-2.19-.45-.93,0-1.76.2-2.5.61-.73.41-1.31.98-1.71,1.71-.41.73-.62,1.57-.62,2.51s.21,1.78.61,2.51c.41.73.97,1.3,1.7,1.7.72.4,1.54.6,2.45.6.86,0,1.64-.15,2.34-.46.7-.3,1.27-.7,1.7-1.19l-1.48-1.31c-.1.11-.21.22-.34.32"/>
      <path class="cls-1" d="M112.91,18.43c.26,0,.49-.06.72-.19.22-.13.4-.3.53-.52.13-.22.2-.46.2-.71,0-.39-.14-.72-.43-1-.28-.28-.62-.42-1.01-.42s-.75.14-1.03.42c-.28.28-.42.61-.42,1.01s.14.73.42,1.01c.28.27.62.41,1.03.41"/>
      <polygon class="cls-1" points="111.83 19.83 113.97 19.83 113.97 29.17 111.83 29.17 111.83 19.83 111.83 19.83"/>
      <path class="cls-1" d="M125.95,22.02c-.19-.35-.42-.68-.7-.97-.27-.29-.58-.53-.91-.74-.33-.2-.69-.36-1.08-.47-.39-.11-.8-.17-1.23-.17-1.25,0-2.24.42-2.96,1.27h-.04v-1.13h-2.14v13.13h2.14v-4.94h.03c.71.86,1.69,1.3,2.95,1.3.51,0,1-.07,1.46-.22.47-.15.88-.36,1.25-.64.37-.28.69-.6.96-.99.27-.39.48-.83.63-1.33.15-.5.22-1.03.22-1.6,0-.46-.05-.91-.15-1.34-.11-.43-.25-.82-.44-1.18M123.62,26.58c-.5.53-1.14.79-1.93.79s-1.42-.26-1.94-.79c-.52-.52-.79-1.2-.79-2.04s.25-1.53.76-2.08c.51-.56,1.16-.83,1.96-.83s1.41.27,1.92.8c.51.53.77,1.24.77,2.12,0,.83-.25,1.51-.75,2.03"/>
      <path class="cls-1" d="M129.04,27.47c.27.38.59.71.96.99.37.28.79.49,1.25.64.46.14.95.21,1.46.21,1.27,0,2.26-.47,2.97-1.4h.03v1.25h2.05v-9.34h-2.14v1.12h-.04c-.71-.84-1.67-1.26-2.89-1.26-.64,0-1.23.12-1.78.37-.56.24-1.03.57-1.43,1-.4.43-.71.94-.95,1.54-.23.6-.34,1.25-.34,1.94,0,.57.07,1.1.22,1.6.15.51.36.95.63,1.33M130.58,23.34c.14-.37.33-.68.58-.93.24-.24.53-.44.86-.57.33-.14.68-.21,1.05-.21.76,0,1.39.28,1.89.84.5.56.75,1.25.75,2.08s-.26,1.51-.77,2.03c-.51.53-1.14.79-1.88.79-.79,0-1.44-.27-1.94-.79-.5-.53-.75-1.21-.75-2.03,0-.44.07-.84.21-1.21"/>
      <polygon class="cls-1" points="140.6 15.07 142.74 15.07 142.74 29.17 140.6 29.17 140.6 15.07 140.6 15.07"/>
      <polygon class="cls-1" points="145.81 19.83 147.95 19.83 147.95 29.17 145.81 29.17 145.81 19.83 145.81 19.83"/>
      <path class="cls-1" d="M146.89,18.43c.26,0,.5-.06.71-.19.22-.13.4-.3.53-.52.13-.22.2-.46.2-.71,0-.39-.14-.72-.43-1-.28-.28-.62-.42-1.01-.42s-.75.14-1.03.42c-.28.28-.42.61-.42,1.01s.14.73.42,1.01c.28.27.63.41,1.03.41"/>
      <path class="cls-1" d="M152.12,28.47c.37.28.79.49,1.25.64.46.14.95.21,1.47.21,1.31,0,2.33-.47,3.04-1.4h.03v1.25h2.05v-14.1h-2.14v5.88h-.05c-.71-.84-1.69-1.26-2.95-1.26-.64,0-1.23.12-1.78.37-.55.24-1.03.57-1.43,1-.4.43-.71.94-.94,1.54-.23.6-.35,1.25-.35,1.94,0,.57.07,1.1.22,1.6.15.5.36.95.63,1.33.27.38.59.71.96,1M152.7,23.34c.14-.37.33-.68.58-.93.24-.24.53-.44.86-.57.33-.14.68-.21,1.05-.21.8,0,1.45.28,1.96.83.51.56.76,1.25.76,2.09s-.26,1.51-.79,2.04c-.52.52-1.17.79-1.95.79s-1.44-.26-1.93-.79c-.5-.53-.75-1.21-.75-2.03,0-.44.07-.84.21-1.21"/>
      <path class="cls-1" d="M169.59,20.95h-.04c-.71-.84-1.67-1.26-2.89-1.26-.64,0-1.23.12-1.79.37-.55.24-1.03.58-1.43,1-.4.43-.71.94-.94,1.54-.23.6-.35,1.25-.35,1.94,0,.57.07,1.1.22,1.6.15.5.36.95.63,1.33.27.38.59.71.96,1,.37.28.79.49,1.25.64.46.14.95.21,1.46.21,1.27,0,2.26-.47,2.97-1.4h.03v1.25h2.05v-9.34h-2.14v1.12h0ZM168.91,26.58c-.51.53-1.14.79-1.89.79-.79,0-1.44-.27-1.93-.79-.5-.53-.75-1.21-.75-2.03,0-.44.07-.84.21-1.21.14-.37.33-.68.58-.92.24-.24.53-.44.86-.57.33-.14.68-.21,1.05-.21.76,0,1.39.28,1.89.84.5.56.75,1.25.75,2.08s-.26,1.51-.77,2.03"/>
      <path class="cls-1" d="M181.37,15.07v5.88h-.05c-.71-.84-1.7-1.26-2.95-1.26-.63,0-1.23.12-1.78.37-.56.24-1.03.57-1.43,1-.4.43-.71.94-.94,1.54-.23.6-.35,1.25-.35,1.94,0,.57.07,1.1.22,1.6.14.5.36.95.62,1.33.27.38.59.71.96,1,.37.28.79.49,1.25.63.46.14.95.21,1.46.21,1.32,0,2.33-.47,3.04-1.4h.03v1.25h2.05v-14.1h-2.14ZM180.67,26.59c-.52.52-1.17.79-1.95.79s-1.44-.26-1.93-.79c-.5-.53-.75-1.21-.75-2.03,0-.44.07-.84.21-1.21.14-.37.33-.68.57-.92.24-.24.53-.44.86-.57.33-.14.68-.21,1.05-.21.8,0,1.45.28,1.96.83.51.56.76,1.25.76,2.09,0,.83-.26,1.51-.79,2.04"/>
      <path class="cls-1" d="M63.91,40.1h-.04c-.71-.84-1.7-1.26-2.96-1.26-.64,0-1.23.12-1.79.37-.56.24-1.03.58-1.43,1-.4.43-.71.94-.95,1.54-.23.6-.35,1.25-.35,1.95,0,.57.08,1.1.22,1.6.15.5.36.95.63,1.33.27.38.59.71.96,1,.37.28.79.49,1.25.63.46.14.95.22,1.46.22,1.32,0,2.33-.47,3.04-1.4h.04v1.25h2.05v-14.1h-2.14v5.88h0ZM63.2,45.73c-.52.52-1.17.79-1.94.79s-1.44-.26-1.93-.79c-.5-.53-.75-1.21-.75-2.03,0-.44.07-.84.21-1.21.14-.37.33-.68.58-.93.24-.24.53-.44.86-.57.33-.14.68-.21,1.05-.21.8,0,1.45.28,1.96.83.51.56.76,1.25.76,2.09s-.26,1.51-.79,2.04"/>
      <path class="cls-1" d="M75.22,39.44c-.69-.4-1.49-.61-2.39-.61-.64,0-1.24.12-1.8.35-.56.23-1.04.56-1.45.98-.4.42-.72.92-.95,1.52-.23.6-.35,1.25-.35,1.96,0,.95.21,1.8.63,2.54.42.74.99,1.3,1.71,1.7.72.39,1.54.59,2.44.59s1.64-.16,2.31-.48c.66-.32,1.21-.75,1.63-1.29l-1.5-1.28c-.59.74-1.36,1.1-2.33,1.1-.68,0-1.27-.19-1.74-.57-.48-.38-.78-.9-.92-1.56h6.81c.04-.22.05-.51.05-.85,0-.91-.18-1.71-.55-2.42-.37-.71-.9-1.27-1.59-1.67M70.53,42.66c.15-.6.44-1.06.87-1.39.43-.33.94-.49,1.53-.49.4,0,.76.08,1.07.24.31.16.57.38.77.65.2.28.34.61.43.99h-4.67Z"/>
      <path class="cls-1" d="M88.88,37.34c.67-.4,1.45-.6,2.32-.6.7,0,1.38.17,2.01.51.64.34,1.19.79,1.64,1.35l1.7-1.44c-.71-.88-1.53-1.53-2.47-1.96-.94-.43-1.9-.64-2.89-.64-.86,0-1.66.12-2.4.35-.74.24-1.38.57-1.92,1-.54.43-1.01.93-1.39,1.51-.39.58-.67,1.22-.86,1.92-.19.7-.29,1.44-.29,2.22,0,.87.12,1.68.35,2.43.24.75.57,1.39.99,1.93.42.54.92,1,1.5,1.38.58.38,1.2.67,1.88.85.68.19,1.39.28,2.13.28,1.13,0,2.16-.23,3.06-.7.91-.47,1.67-1.09,2.29-1.88l-1.7-1.45c-.46.56-1,1.02-1.62,1.35-.63.33-1.3.5-2.04.5-.85,0-1.62-.2-2.29-.59-.68-.39-1.2-.95-1.58-1.66-.38-.71-.57-1.53-.57-2.45s.19-1.79.56-2.52c.38-.73.9-1.29,1.57-1.69"/>
      <polygon class="cls-1" points="106.31 34.9 103.96 34.91 101.76 37.67 103.94 37.67 106.31 34.9 106.31 34.9"/>
      <path class="cls-1" d="M105.45,39.44c-.74-.4-1.59-.6-2.53-.6s-1.82.21-2.57.63c-.75.42-1.33.99-1.73,1.72-.4.73-.6,1.55-.6,2.47,0,.68.12,1.31.36,1.91.24.59.57,1.1.99,1.53.42.43.94.76,1.56,1,.62.24,1.29.37,2.01.37.94,0,1.78-.2,2.53-.6.74-.41,1.33-.97,1.74-1.71.42-.73.63-1.56.63-2.5s-.21-1.78-.63-2.52c-.42-.73-1-1.3-1.74-1.71M104.85,45.71c-.52.54-1.17.81-1.94.81s-1.44-.28-1.96-.82c-.51-.55-.77-1.23-.77-2.04s.25-1.51.76-2.06c.5-.55,1.16-.82,1.97-.82s1.43.27,1.95.8c.52.54.78,1.23.78,2.08,0,.83-.26,1.51-.79,2.05"/>
      <path class="cls-1" d="M113.51,39.23c-.5.27-.94.65-1.3,1.15h-.03v-1.4h-2.14v9.34h2.14v-4.43c0-.51.1-.97.29-1.37.2-.4.49-.72.88-.96.39-.24.85-.36,1.38-.36.19,0,.4.01.65.03v-2.38s-.14,0-.26,0c-.57,0-1.1.13-1.6.39"/>
      <path class="cls-1" d="M123.84,40.1h-.05c-.71-.84-1.7-1.26-2.95-1.26-.64,0-1.23.12-1.78.37-.55.24-1.03.58-1.43,1-.4.43-.71.94-.94,1.54-.23.6-.34,1.25-.34,1.95,0,.57.07,1.1.22,1.6.15.5.36.95.62,1.33.27.38.59.71.97,1,.37.28.79.49,1.25.63.46.14.95.22,1.46.22,1.31,0,2.33-.47,3.04-1.4h.04v1.25h2.05v-14.1h-2.14v5.88h0ZM123.14,45.73c-.52.52-1.17.79-1.95.79s-1.44-.26-1.94-.79c-.5-.53-.75-1.21-.75-2.03,0-.44.07-.84.21-1.21.14-.37.33-.68.58-.93.24-.24.53-.44.86-.57.33-.14.68-.21,1.05-.21.8,0,1.45.28,1.96.83.51.56.77,1.25.77,2.09s-.26,1.51-.79,2.04"/>
      <path class="cls-1" d="M135.65,39.44c-.74-.4-1.59-.6-2.53-.6s-1.82.21-2.58.63c-.75.42-1.33.99-1.73,1.72-.4.73-.6,1.55-.6,2.47,0,.68.12,1.31.36,1.91.23.59.57,1.1.99,1.53.42.43.94.76,1.56,1,.62.24,1.29.37,2.01.37.94,0,1.78-.2,2.53-.6.74-.41,1.33-.97,1.74-1.71.42-.73.63-1.56.63-2.5s-.21-1.78-.63-2.52c-.42-.73-1-1.3-1.74-1.71M135.05,45.71c-.52.54-1.17.81-1.93.81s-1.44-.28-1.96-.82c-.51-.55-.77-1.23-.77-2.04s.25-1.51.76-2.06c.5-.55,1.16-.82,1.97-.82s1.43.27,1.94.8c.52.54.78,1.23.78,2.08,0,.83-.26,1.51-.79,2.05"/>
      <path class="cls-1" d="M149.04,40.76c-.27-.4-.59-.74-.96-1.03-.37-.29-.78-.51-1.25-.67-.46-.15-.95-.23-1.46-.23-1.26,0-2.24.42-2.96,1.26h-.05v-5.88h-2.14v14.1h2.05v-1.25h.04c.71.94,1.72,1.4,3.04,1.4.64,0,1.24-.11,1.8-.34.56-.23,1.04-.55,1.44-.96.4-.41.71-.92.94-1.52.23-.6.35-1.25.35-1.96,0-.56-.07-1.08-.22-1.58-.15-.5-.36-.95-.62-1.34M146.96,45.73c-.5.53-1.14.79-1.93.79s-1.42-.26-1.94-.79c-.52-.52-.79-1.2-.79-2.04,0-.33.04-.64.13-.94.08-.29.21-.56.37-.8.16-.24.35-.45.57-.62.22-.18.47-.31.75-.41.28-.09.58-.14.9-.14.77,0,1.41.27,1.92.8.51.53.77,1.24.77,2.11,0,.83-.25,1.51-.75,2.03"/>
      <path class="cls-1" d="M158.97,40.09h-.04c-.71-.84-1.67-1.26-2.89-1.26-.63,0-1.23.12-1.78.37-.56.24-1.03.57-1.43,1-.4.43-.71.94-.95,1.54-.23.6-.34,1.25-.34,1.95,0,.57.07,1.1.22,1.6.15.5.36.95.63,1.33.27.39.59.71.96,1,.37.28.79.49,1.25.64.46.14.95.21,1.46.21,1.27,0,2.26-.47,2.97-1.4h.03v1.25h2.05v-9.34h-2.14v1.12h0ZM158.28,45.73c-.51.53-1.14.79-1.88.79-.79,0-1.44-.26-1.94-.79-.5-.53-.75-1.2-.75-2.03,0-.44.07-.84.21-1.21.14-.37.33-.68.58-.93.24-.24.53-.44.86-.57.33-.14.68-.21,1.05-.21.76,0,1.39.28,1.89.84.5.56.75,1.25.75,2.08,0,.83-.26,1.51-.77,2.03"/>
    </g>
  </g>
</svg>