<?xml version="1.0" encoding="UTF-8"?>
<svg id="Layer_2" data-name="Layer 2" xmlns="http://www.w3.org/2000/svg" viewBox="0 0 1225.08 1599.32">
  <defs>
    <style>
      .cls-1 {
        fill: #fff;
      }
    </style>
  </defs>
  <g id="Layer_1-2" data-name="Layer 1" image-rendering="optimizeQuality" shape-rendering="geometricPrecision" text-rendering="geometricPrecision">
    <g>
      <path class="cls-1" d="M734.9,11.26l-78.06-8.79-61.72.09-30.91,3.39c-.23-.75-.24-2.24.09-2.99.02-.04,20.9-3.01,28.15-2.96l72.43.51c24.37.17,47.65,4.16,70.03,10.75Z"/>
      <path class="cls-1" d="M715.46,1203.88l-32.23,3.6-21.94,1.99-79.65.26-17.4-2.05c-5.72-.67-10.73-.67-15.21-1.93,2.71-4.27,7.47-1.1,11.02-.75l23.81,2.28,70.91-.11,26.21-1.95,23.69-2.36c3.18-.32,8.63-3.94,10.8,1.01Z"/>
      <path class="cls-1" d="M1216.98,697.31l5.72-64.98.34-46.88-1.83-19.59c-.65-7.01-1.45-13.53-1.82-19.46,1.53-.72,3.38.17,3.77,1.41s1.01,3.47.71,4.81c-2.15,9.57,1.23,17.58,1.2,26.43l-.17,55.79-1.92,24.12c-1.06,13.28-1.41,27.3-6.01,38.36Z"/>
      <path class="cls-1" d="M44.78,758.54c-8.86-33.88-17.82-68.34-17.82-104.69v-95.47c.01-19,5.13-36.58,7.52-55.22.59-4.62.86-8.69,4.47-10.63l-8.22,53.76c-1.01,6.61-2.17,13.38-2.14,19.73l.43,87.85c.16,33.78,13.35,72.67,15.76,104.67Z"/>
      <path class="cls-1" d="M1194.73,788.4c-.82-5.53,2.56-10.11,3.97-15.97l15.41-64.1c1.24,12.44-1.96,24.67-5.47,37.4-4.08,14.81-5.61,30.6-13.91,42.67Z"/>
      <path class="cls-1" d="M551.23,6.07c-1.16,3.77-5.74,1.48-8.57,1.87-31.14,4.31-59.82,11.74-88.79,19.51.87-2.2,2.94-3.68,6.16-4.51,26.12-6.73,51.31-13.13,78.24-16.79l12.95-.08Z"/>
      <path class="cls-1" d="M726.17,1596.85l52.01.05c-.2,1.39-1.88,2.31-4.18,2.3l-50.51-.37c-2.67-.02-2.89-8.23,1.46-8.33-1.65,1.73-1.21,6.35,1.21,6.35Z"/>
      <path class="cls-1" d="M780.45,21.76l-31.42-6.1c-2.55-.47-4.39-1.73-5.33-3.09,12.14.15,26.11,2.43,36.75,9.18Z"/>
      <path class="cls-1" d="M542.61,1205.52l-27.83-4.52c-3.24-.53-5.56-1.68-6.77-3.74l28.17,4.11,5.02.26c1.24.06,2.16,2.2,1.41,3.89Z"/>
      <g>
        <path class="cls-1" d="M734.9,11.26c2.77.31,5.45,1.28,8.8,1.32.94,1.36,2.78,2.62,5.33,3.09l31.42,6.1c109.56,32.2,210.08,92.66,287.25,178.81,52.66,58.78,90.75,126.85,118.9,198.61l9.07,26.38c-.31,8.58,4.47,18.28,8.02,25.85-.96-.45-1.56.47-1.56,1.25,0,1.27.51,2.35.91,3.78l7.6,25.17,7.73,48.35,1.04,16.44c.37,5.93,1.17,12.46,1.82,19.46l1.83,19.59-.34,46.88-5.72,64.98c-1.59,3.81-1.91,7-2.87,11.01l-15.41,64.1c-1.41,5.86-4.79,10.44-3.97,15.97-45.33,141.79-139.97,263.48-269.34,339.64-27.85,16.4-54.93,28.66-84.88,40.71l-20.25,8.14-24.35,7.87-30.76,7.81-43.06,8.5c-1.93.38-3.62,2.47-6.63,2.81-2.17-4.95-7.62-1.33-10.8-1.01l-23.69,2.36-26.21,1.95-70.91.11-23.81-2.28c-3.55-.34-8.31-3.51-11.02.75l-6.41-.24c.75-1.69-.16-3.83-1.41-3.89l-5.02-.26-28.17-4.11c-6.86-1-13.66-.22-21.32-2.73-11.82-3.86-24.7-4.74-34.79-10.59-9.99-5.79-21.89-7.02-32.74-10.65-74.33-24.85-141.14-68.71-199.74-121.8l-32.69-32.84c-68.56-73.82-118.21-162.94-141.96-260.11-2.41-32-15.59-70.89-15.76-104.67l-.43-87.85c-.03-6.35,1.12-13.12,2.14-19.73l8.22-53.76c-.98-1.86-1.97-4.54-1.24-7.52,7.25-29.52,14.36-57.45,24.51-86.25,26.54-75.26,66.88-142.46,120.34-201.36l41.21-41.26c52.84-46.67,111.69-84.83,176-111.47-.33,2.33,2.08,3.11,2.81.96l20.29-7.89c7.2-2.8,14.69-3.65,20.21-8.63,2.85-.39,7.8-.87,10.77-1.66,28.97-7.77,57.66-15.2,88.79-19.51,2.83-.39,7.41,1.9,8.57-1.87l12.98-.13,30.91-3.39,61.72-.09,78.06,8.79ZM281.95,197.01c-1.36-.94-2.72.34-3.01,1.42l-5.42,3.67-3.09,2.55c-1.35,1.12-2.88,3.85-4.49,4.49-3.26,1.3-4.51,4.38-6.7,6.29-3.95,3.45-7.12,7.24-10.82,10.98l-4.26,4.29c-1.4,1.41-3.32,2.38-4.23,4.47-.32.74-1.54,1.55-2.14,2.12l-6.87,6.67c-14.54,14.12-26.68,30.82-38.55,47.25-59.81,82.77-94.25,181.26-100.49,284l-.27,63.82c9.92,128.68,55.82,240.34,144.1,333.08l2.02,2.35c4.62,5.37,10,10.3,15.15,15.14l2.22,2.09,2.16,2.17,2.2,2.06c8.19,7.69,15.02,15.9,24.32,23.32,80.58,64.31,174.89,107.02,277.95,119.74l41.34,2.45c12.89.76,24.08,2.73,37.2.02l31.57-1.13c46.48-5.81,91.58-14.2,135.14-30.88,68.52-26.23,118.61-57.43,173-105.97,6.14-5.48,12.85-9.38,16.53-16.15.38-.69,1.52-1.61,2.19-2.05,7.85-5.2,13.02-12.97,19.44-19.84,7.84-8.39,17.37-17.19,23.5-27.76,4.56-7.86,10.92-13.13,14.98-19.48l37.27-58.29c36.96-66.63,57.96-139.85,62.95-216.05,1.4-21.41,2.83-40.46.72-61.44-2.1-20.82-2.14-41.25-7.24-62.23-2.32-9.53-.97-20.36-6.98-27.72l.22-2.25c1.17-11.87-3.91-23.09-7.67-35.68-18.19-60.91-46.8-116.88-85.2-167.57-8.38-11.06-14.81-22.76-24.53-32.39l-46.48-46.08-15.07-14.6-20.49-14.26c-81.19-63.65-174.25-101.51-278.81-110.11l-83.25.02c-114.15,8.36-215.07,54.08-300.12,127.47Z"/>
        <path class="cls-1" d="M765.16,1192.57c-13.38,5.66-28.58,8.57-43.06,8.5l43.06-8.5Z"/>
        <path class="cls-1" d="M443.1,29.12c-5.52,4.98-13.01,5.84-20.21,8.63l-20.29,7.89c-.73,2.14-3.15,1.37-2.81-.96,13.28-5.5,28.48-13.55,43.32-15.56Z"/>
        <path class="cls-1" d="M451.91,1183.93c-11.29-1.04-22.96-4.84-32.74-10.65,10.85,3.63,22.75,4.85,32.74,10.65Z"/>
        <path class="cls-1" d="M1210.64,481.6l-7.6-25.17c-.39-1.42-.91-2.5-.91-3.78,0-.78.6-1.7,1.56-1.25,4.44,9.49,5.34,20.14,6.94,30.2Z"/>
        <path class="cls-1" d="M1195.68,425.55l-9.07-26.38c3.31,8.45,9.45,16.08,9.07,26.38Z"/>
        <path class="cls-1" d="M944.12,179.63l20.49,14.26,15.07,14.6c36.55,40.1,77.5,82.11,103.97,132.05l12.75,24.06c19.91,37.57,33.71,76.76,43.53,118.33.77,3.26,1.52,5.79,3.64,7.29l-.22,2.25,5.84,35.06,2.41,23.13,2.2,21.88-.37,74.87c-7.52,93.71-39.29,188.43-94.43,264.06-1.72,2.36-1.64,5.49-2.37,6.74-4.06,6.35-10.43,11.62-14.98,19.48-6.13,10.57-15.65,19.37-23.5,27.76.02-2.23-1.55-1.77-2.34-.87l-2.47,2.81-14.63,17.9c-.68.45-1.82,1.36-2.19,2.05l-51.73,43.43c-10.24,8.69-20.93,14.78-31.68,22.3-23.12,16.17-46.89,28.02-72.92,39.83-58.45,26.53-121.32,40.19-185.57,44.98l-62.15.09-22.12-1.57c-71.11-7.62-139.43-29.49-202.09-62.67-15.19-8.04-27.53-16.91-41.5-26.2-22.05-14.67-42.54-29.98-61.16-49.08-1.76-1.81-4.5-2.28-6.12-2.52l-2.2-2.06-2.16-2.17-2.22-2.09c-4.42-5.52-8.41-12.37-15.15-15.14l-2.02-2.35c.28-4.13-3.21-5.87-6.16-9.04-36.7-39.48-65.19-84.09-87.34-133.33l-6.7-14.89c-20.95-52.58-34.44-106.47-39.74-162.88l-1.27-31.66c-.5-12.53-.5-22.56.2-35.1l1.4-25.1c5.71-60.79,18.98-119.68,44.98-174.91l9.69-20.59c13.07-27.78,43.74-73.83,43.83-71.99-.04-.75-1.01-1.62-2.26-1.4,11.87-16.43,24-33.12,38.55-47.25,3.8,2.4,6-3.71,6.87-6.67.59-.58,1.82-1.39,2.14-2.12,1.46.39,3.31-.05,4.03-1.28.51-.87.54-2.18.2-3.19l4.26-4.29c4.62-2.52,8.38-6.29,10.82-10.98,2.18-1.91,3.43-4.98,6.7-6.29,1.48.32,3.6-.32,5.35-1.8.71-.6,1.94-2.1-.87-2.7l3.09-2.55c2.61.3,4.75-1.16,5.42-3.67.29-1.08,1.65-2.36,3.01-1.42,36.22-28.54,74.67-56.22,118.19-75.79l20.88-9.39c56.07-25.21,115.08-36.33,176.71-39.99,86.09-5.11,170.7,13.74,249.23,49.04,36.05,16.2,66.59,37.46,97.17,58.74ZM408.65,196.2c-6.66.58-8.32,8.42-15.35,6.23-7.73-2.41-14.22,5-20.66,9.62l-24.02,17.23-32.31,25.81-18.74,18.64c-1.98.66-1.6,3.08.65,2.86-1.06,4.55-4.3,7.03-8.48,8.51-3.6,1.28-7.14,5.04-8.7,8.41-.57,1.23.85,2.68,2.62,2.65-14.76,14.03-26.13,31.09-37.95,48.67l-12.13,18.03c-3.16,4.7-3.3,13.21-11.2,14.86-.3-.66-1.49-2.53-4.22-1.85,2.23,7.69-5.08,12.26-7.15,17.23l-24.68,59.36c-5.17,12.45-8.94,23.88-12.41,37.4l-5.29,20.54c-1.87,7.27-2.8,13.11-3.63,20.74l-5.65,52.16c-5.33,49.18,5.03,109.06,18.36,157.53l13.1,35.1c1.95,5.22,3.2,7.63,5.7,12.76l16.44,33.61c6.71,13.72,13.32,28.77,24.25,37.69l28.23,34.75,15.35,16.91c.23.68.67,2.05-.99,2.97l17.26,19.88,9.91,7.48,6.53,4.31c8.07,5.32,16.07,11.14,21.75,19.31-1.17,1.13-1.3,1.94-1.05,3.03.4,1.72,3.38,2.68,4.84,3.72l30.31,21.6c14.06,10.02,27.97,18.84,44.3,25.05l30.47,16.07,25.06,9.71c9.06,3.51,16.7,6.78,25.91,9.09l20.12,5.06c6.53,1.64,12.76,4.1,18.91,4.88l47.92,6.14c9.35,1.2,17.91,4.96,28,1.95,7.86-2.34,15.86,2.17,23.31,1.34l25.09-2.81c9.58,2.41,23.08-3.03,33.9-3.47,10.64-.44,19.25-4.36,29.44-6.21,16.83-3.04,41.12-8.85,55.58-15.32,4.66-2.08,10.23-.55,15.53-5.55l16.22-6.46c-.58-2.84-2.11-3.95-2.81-4.77l10.38-4.82c40.87-18.99,72.54-42.42,106.38-69.39.14,1.85,2.36,2.89,3.6,1.71l17.73-16.9c.72-.69-1.03-2.38-2.1-1.82l15.01-15.34c1.71,7.71,4.04-3.04,14.93-11.19.9-.67,1.73-2.25,1.88-2.93.19-.88-.3-2.13-1.67-2.93,14.86-19.97,30.62-38.99,43.42-60.41,8.03,3.42,16.28-21.23,28.77-42.31,6.01-10.14,11.06-20.22,13.26-31.98,1.35-7.18,6.99-13.24,8.6-19.16,2.14-7.85,2.27-14.43,6.58-21.88,1.69-2.91,2.11-10.4,2.89-14.18l11.64-56.11,2.9-35.4c1.19-14.49,1.03-27.98.08-42.4-.56-8.49.94-14.9-2.04-23.91l-1.52-17.84-5.84-23.76c-1.08-4.38-.77-10.9-1.38-14.4-6.25-9.73-5.3-20.86-11.83-35.82-4.51-10.34-7.6-22.11-13.61-36.23l-10.18-23.91c-4.16-9.77-9.7-18.67-15.2-27.66-11.54-18.83-22.31-37.22-35.78-54.01-1.73,1.88-.79,3.57-1.44,4.99-16.64-21.36-34.44-41.6-53.84-60.6,1.75-2.06,2-4.3-.13-6.37l-11.17-10.88c-.89-.87-1.98-1.79-2.81-1.94-.9-.16-2.44.38-3.38,2.17l-46.55-33.9c-52.74-35.11-111.7-58.87-173.37-69.08.13-.08.24-1.82-.25-2.49-.61-.84-2.39-.89-4.13-1.09l-33.17-3.68-76.98-.84c-1.54-.02-2.51,1.54-2.07,2.52-2.8-.02-6.14,3.66-11.14,2.16-5.44-1.63-10.84.62-15.1,1.46-2.46-8.46-16.11-3.56-29.06-.92-16.24,3.31-31.41,7.94-47.28,13.36l-21.13,7.22c-8.88,3.03-16.83,7.42-25.2,11.25-10.42,4.77-20.17,8.51-30.5,16.42l4.17,2.77Z"/>
        <path class="cls-1" d="M235.72,972.11c-88.29-92.74-134.19-204.41-144.1-333.08l.27-63.82c6.24-102.74,40.68-201.23,100.49-284,1.25-.22,2.22.64,2.26,1.4-.09-1.84-30.76,44.21-43.83,71.99l-9.69,20.59c-26,55.23-39.27,114.13-44.98,174.91l-1.4,25.1c-.7,12.54-.71,22.57-.2,35.1l1.27,31.66c5.3,56.41,18.79,110.3,39.74,162.88l6.7,14.89c22.15,49.24,50.64,93.86,87.34,133.33,2.95,3.17,6.44,4.91,6.16,9.04Z"/>
        <path class="cls-1" d="M259.46,995.92c1.62.24,4.36.71,6.12,2.52,18.62,19.1,39.11,34.4,61.16,49.08,13.97,9.29,26.31,18.16,41.5,26.2,62.66,33.18,130.98,55.04,202.09,62.67l22.12,1.57,62.15-.09c64.25-4.78,127.12-18.45,185.57-44.98,26.03-11.81,49.79-23.66,72.92-39.83,10.76-7.52,21.44-13.61,31.68-22.3l51.73-43.43c-3.67,6.77-10.39,10.67-16.53,16.15-54.39,48.54-104.48,79.74-173,105.97-43.55,16.67-88.66,25.06-135.14,30.88l-31.57,1.13c-13.12,2.71-24.32.74-37.2-.02l-41.34-2.45c-103.06-12.72-197.37-55.42-277.95-119.74-9.29-7.42-16.13-15.63-24.32-23.32Z"/>
        <path class="cls-1" d="M944.12,179.63c-30.58-21.28-61.12-42.54-97.17-58.74-78.53-35.3-163.14-54.15-249.23-49.04-61.63,3.66-120.64,14.77-176.71,39.99l-20.88,9.39c-43.52,19.57-81.98,47.25-118.19,75.79,85.04-73.39,185.96-119.11,300.12-127.47l83.25-.02c104.56,8.6,197.62,46.46,278.81,110.11Z"/>
        <path class="cls-1" d="M1056.61,918.19c.74-1.24.65-4.37,2.37-6.74,55.14-75.63,86.91-170.35,94.43-264.06l.37-74.87-2.2-21.88-2.41-23.13-5.84-35.06c6.01,7.36,4.66,18.19,6.98,27.72,5.11,20.98,5.14,41.41,7.24,62.23,2.11,20.98.68,40.03-.72,61.44-5,76.2-25.99,149.42-62.95,216.05l-37.27,58.29Z"/>
        <path class="cls-1" d="M1143.56,490.21c-2.12-1.5-2.87-4.02-3.64-7.29-9.82-41.57-23.62-80.76-43.53-118.33l-12.75-24.06c-26.46-49.95-67.41-91.96-103.97-132.05l46.48,46.08c9.72,9.64,16.16,21.33,24.53,32.39,38.4,50.69,67,106.66,85.2,167.57,3.76,12.59,8.84,23.81,7.67,35.68Z"/>
        <path class="cls-1" d="M252.89,989.6c-5.14-4.83-10.52-9.76-15.15-15.14,6.74,2.76,10.72,9.62,15.15,15.14Z"/>
        <path class="cls-1" d="M239.93,235.17c.91-2.09,2.83-3.05,4.23-4.47.34,1.01.31,2.32-.2,3.19-.72,1.22-2.57,1.67-4.03,1.28Z"/>
        <path class="cls-1" d="M1018.13,965.43c-6.42,6.87-11.6,14.64-19.44,19.84l14.63-17.9,2.47-2.81c.79-.9,2.36-1.36,2.34.87Z"/>
        <path class="cls-1" d="M265.94,209.15c1.6-.64,3.13-3.37,4.49-4.49,2.81.6,1.58,2.1.87,2.7-1.75,1.47-3.88,2.12-5.35,1.8Z"/>
        <path class="cls-1" d="M230.92,243.96l6.87-6.67c-.88,2.96-3.07,9.08-6.87,6.67Z"/>
        <path class="cls-1" d="M248.41,226.42c3.71-3.73,6.88-7.53,10.82-10.98-2.44,4.69-6.2,8.45-10.82,10.98Z"/>
        <path class="cls-1" d="M273.51,202.11l5.42-3.67c-.67,2.51-2.81,3.97-5.42,3.67Z"/>
        <path class="cls-1" d="M257.26,993.86l-2.16-2.17,2.16,2.17Z"/>
        <path class="cls-1" d="M404.07,1011.45l28.37,14.69,18.46,7.47c4.77,1.93,7.89,2.41,11.86,3.58.74,1.4,2.38,2.72,4.81,3.5l36.07,11.63c1.14.37,3.2.05,4.34-.1l32.43,8.51,43.41,5.89,79.68.55,13.04-2.14c7.15-1.18,14.32-.7,19.39-4,18.84-1.89,56.72-11.94,77.61-19.9l32.75-12.48c.7.82,2.23,1.93,2.81,4.77l-16.22,6.46c-5.3,4.99-10.87,3.46-15.53,5.55-14.47,6.46-38.76,12.27-55.58,15.32-10.19,1.84-18.8,5.77-29.44,6.21-10.82.44-24.33,5.88-33.9,3.47l-25.09,2.81c-7.45.83-15.44-3.68-23.31-1.34-10.09,3-18.65-.76-28-1.95l-47.92-6.14c-6.15-.79-12.38-3.24-18.91-4.88l-20.12-5.06c-9.21-2.32-16.85-5.58-25.91-9.09l-25.06-9.71-30.47-16.07c-16.33-6.22-30.24-15.03-44.3-25.05l-30.31-21.6c-1.46-1.04-4.44-2-4.84-3.72-.26-1.1-.12-1.9,1.05-3.03,21.9,13.45,45.41,33.75,68.83,45.87Z"/>
        <path class="cls-1" d="M1015.85,844.62c17.12-28.65,34.23-58.5,43.09-90.66,8.13-13.01,10.94-28.52,14.74-43.98l5.14-20.88,6.38-43.13-.17-19.56c.65.35,1.68,0,1.74-.82,2.76-39.02-1.93-77.03-10.84-113.61.4-1.06.86-3.27.57-4.47-5.37-22.2-11.99-44.4-21.04-65.27-17.36-40.01-36.87-79.11-63.72-113.58.65-1.42-.28-3.11,1.44-4.99,13.47,16.79,24.24,35.18,35.78,54.01,5.5,8.98,11.04,17.89,15.2,27.66l10.18,23.91c6.01,14.12,9.1,25.89,13.61,36.23,6.53,14.95,5.58,26.08,11.83,35.82.61,3.5.3,10.02,1.38,14.4l5.84,23.76,1.52,17.84c2.98,9.01,1.48,15.42,2.04,23.91.95,14.42,1.11,27.91-.08,42.4l-2.9,35.4-11.64,56.11c-.78,3.78-1.2,11.27-2.89,14.18-4.31,7.45-4.44,14.03-6.58,21.88-1.61,5.92-7.26,11.98-8.6,19.16-2.2,11.76-7.25,21.84-13.26,31.98-12.49,21.08-20.74,45.73-28.77,42.31Z"/>
        <path class="cls-1" d="M222.39,377.7c-16.54,33.07-29.53,67.15-40.02,103.18-1.69,5.8-5.87,9.88-5.14,15.91-6.17,10.74-9.06,37.38-8.45,38.8l1.53,3.57c.53,1.23-6.6,5.37-2.79,16.32-8.18,13.64,2.63,22.52-3.31,27.72-.69-.22-2.09.73-2.08,2.23l.43,51.64c.05,6.59,3.11,12.55,1.56,19.77-.43,2.01,1.14,4.17,2.28,4.15-.58,5.6-.31,11.5,3.97,16.56-3.85,4.69.12,8.86.69,11.89l2.25,11.97c2.63,13.94,4.69,27.69,11.5,40.17-1.61,7.12,3.17,12.39,5.42,18.49,2.82,7.62,3.82,15.5,8.86,21.85-.19,8.27,6.08,16.99,9.96,24.16l19.92,36.77c3.2,5.9,8.61,10.33,8.22,17.09-10.93-8.92-17.54-23.96-24.25-37.69l-16.44-33.61c-2.51-5.13-3.76-7.54-5.7-12.76l-13.1-35.1c-13.33-48.47-23.69-108.35-18.36-157.53l5.65-52.16c.83-7.63,1.76-13.47,3.63-20.74l5.29-20.54c3.48-13.51,7.24-24.95,12.41-37.4l24.68-59.36c2.07-4.97,9.38-9.54,7.15-17.23,2.73-.68,3.92,1.19,4.22,1.85Z"/>
        <path class="cls-1" d="M557.65,146.1l-50.89,10.06c-4.69.93-7.38,4.05-12.1,3.13s-19.6,3.91-25.46,9.39l-9.86,2.7c-12.56,3.44-28.92,15.27-39.21,17.62-3.9.89-7.56,6.87-11.49,7.21l-4.17-2.77c10.33-7.91,20.08-11.66,30.5-16.42,8.37-3.83,16.33-8.22,25.2-11.25l21.13-7.22c15.87-5.42,31.03-10.05,47.28-13.36,12.95-2.64,26.6-7.54,29.06.92Z"/>
        <path class="cls-1" d="M937.91,268.05l-17.5-17.02c.94-1.79,2.49-2.34,3.38-2.17.83.15,1.92,1.08,2.81,1.94l11.17,10.88c2.13,2.07,1.88,4.31.13,6.37Z"/>
        <path class="cls-1" d="M313.5,946.27l-6.53-4.31-27.16-27.37c1.66-.92,1.22-2.29.99-2.97,9.62,6.57,16.46,16.19,25.37,24.65,3.37,3.2,7.62,5.18,7.33,9.99Z"/>
        <path class="cls-1" d="M923.05,954.44c4.01-3.2,5.75-8.85,12.81-10.95,2.23-.66,4.94-4.56,6.42-6.07,1.07-.56,2.82,1.14,2.1,1.82l-17.73,16.9c-1.24,1.18-3.46.14-3.6-1.71Z"/>
        <path class="cls-1" d="M957.29,922.09c6.64-6.79,9.13-13.78,15.14-17.05,1.37.8,1.86,2.05,1.67,2.93-.15.69-.99,2.26-1.88,2.93-10.89,8.16-13.22,18.9-14.93,11.19Z"/>
        <polygon class="cls-1" points="306.97 941.96 297.07 934.48 279.81 914.59 306.97 941.96"/>
        <path class="cls-1" d="M281.04,293.5c1.57-3.37,5.1-7.13,8.7-8.41-1.98,3.49-5,6.51-8.7,8.41Z"/>
        <path class="cls-1" d="M695.93,1061.03c-5.07,3.29-12.25,2.82-19.39,4l-13.04,2.14-79.68-.55c-.22-.24.58-1.27,2.14-1.29l74.88-.78,35.1-3.53Z"/>
        <path class="cls-1" d="M503.64,1052.32l-36.07-11.63c-2.42-.78-4.07-2.1-4.81-3.5l36.51,10.8c2.58.76,3.97,2.63,4.37,4.32Z"/>
        <path class="cls-1" d="M432.44,1026.14l-28.37-14.69c7.42-.58,13.18,4.54,20.39,7.59,4.01,1.7,8.03,2.9,7.98,7.09Z"/>
        <path class="cls-1" d="M540.41,1060.73l-32.43-8.51c7.36-.98,14.07,2.39,22.24,3.75,4.39.73,8.99.47,10.19,4.77Z"/>
        <g>
          <path class="cls-1" d="M393.3,202.43c-.59,5.17-6.14,5.42-9.42,7.82-9.7,7.09-18.92,12.66-28.66,19.01-12.15,7.92-44.77,36.47-51.58,45.34-2.79-.97-4.99.15-5.42,1.98-2.25.22-2.64-2.19-.65-2.86l18.74-18.64,32.31-25.81,24.02-17.23c6.44-4.62,12.93-12.03,20.66-9.62Z"/>
          <path class="cls-1" d="M700.5,148.04l-39.84-5.01-76.76-.56c-.44-.98.54-2.54,2.07-2.52l76.98.84,33.17,3.68c1.74.19,3.52.25,4.13,1.09.49.67.38,2.41.25,2.49Z"/>
          <path class="cls-1" d="M303.64,274.6c-5.9,7.69-12.75,14.67-19.98,21.54-1.77.03-3.2-1.41-2.62-2.65,3.7-1.9,6.72-4.92,8.7-8.41,4.18-1.48,7.42-3.96,8.48-8.51.43-1.82,2.63-2.95,5.42-1.98Z"/>
          <path class="cls-1" d="M1076.5,507.5c-3.4-.91-3.9-4.33-5.01-8.05l-16.03-57.22c9.05,20.87,15.68,43.06,21.04,65.27Z"/>
          <path class="cls-1" d="M166.4,661.01c-1.14.03-2.71-2.14-2.28-4.15,1.55-7.22-1.51-13.18-1.56-19.77l-.43-51.64c-.01-1.5,1.39-2.45,2.08-2.23l.54,45.39c.13,11.32,2.75,21.79,1.65,32.4Z"/>
          <path class="cls-1" d="M1085.03,626.4l-.46-45.23-1.91-19.76-6.73-49.44c8.91,36.59,13.6,74.6,10.84,113.61-.06.82-1.08,1.17-1.74.82Z"/>
          <path class="cls-1" d="M1058.94,753.96c5.77-20.93,12.84-41.3,16.43-63.36.68-.83,3.07-1.52,3.45-1.51l-5.14,20.88c-3.8,15.46-6.62,30.97-14.74,43.98Z"/>
          <path class="cls-1" d="M168.79,535.6c-.61-1.43,2.28-28.07,8.45-38.8,1.01,8.29-3.01,16.84-3.97,26.07-.55,5.28-.44,10.21-4.48,12.74Z"/>
          <path class="cls-1" d="M494.66,159.28c-7.47,4.91-16.72,7-25.46,9.39,5.86-5.48,20.82-10.3,25.46-9.39Z"/>
          <path class="cls-1" d="M209.07,806.11c-3.89-7.17-10.15-15.88-9.96-24.16,5.39,6.79,8.69,15.39,9.96,24.16Z"/>
        </g>
        <g>
          <path class="cls-1" d="M575.65,471.23c4.16,2.56,9.08,3.86,13.05,7.16l1.48,5.34c2.75,5.44,6.97,10.82,12.96,12.95l1.95,2.56c1.4,6.72,5.41,12,10.25,17.43,27.87,31.23,42.92,111.41,32.5,154.3l-9.36,38.55c-10.39,32.76-32.71,56.4-53.28,80.7-1.78,4.27-3.68,7.89-9.65,11.87-3.44-3.3-6.31-1.39-9.74.9l-15.98,10.69-27.18,11.7c-22.93,9.87-55.7,19.65-79.52,15.93l-28.09.8c-29.45-4.62-56.93-15.31-83.41-28.42-1.88-.93-3.05-3.71-5.63-2.48-1.05.5-1.76,1.76-1.79,3.32-8.43-5.95-17.55-11.33-23.88-19.34-7.61-9.64-16.48-18.2-26.33-26.04-2.88-6.6-12.32-11.47-11.74-19.54.4-5.54-3.25-12.47-6.81-17.46-9.01-12.61-22.99-50.98-23.23-66.3-.08-5.04.26-7.22-2.24-12.48l1.33-18.07c-5-22.28,5.25-67.7,16.88-89.15,3.75-6.91,6.42-13.28,10.67-20.04l14.82-23.55c.84-.88,1.07-2.75-1.95-2.98,7.25-10.1,17.27-17.22,26.85-26.25,10.6-9.98,21.52-18.65,34.41-24.14-.03.44,2.43,2.32,3.49,1.61,18.66-12.56,67.02-25.83,87.04-25.07,13.85.52,29.23-2.51,42.93.78,6.77,1.63,12.71,2.28,19.88,3.25,34.55,4.67,62.21,24.76,89.31,41.47ZM356.65,522.68c-2.01,1.78-4.61,4.58-7.04,5.73-3.86,1.83-8.17,3.93-10.67,8.95-2.2,4.41-8.42,6.98-10.59,10.45l-10.21,16.34c-32.92,52.68-20.92,128.03,23.02,165.88,10.35,8.92,21.09,16.52,30.58,23.77,37.06,28.3,93.92,27.43,136.66,2.54,4.95-2.88,12.01-6.7,14.88-10.55,1.3-1.75,4.37-5.82,6.26-7.02,9.92-3.29,13.57-12.14,19.28-19.21-.33,2.14,2.54,2.43,2.33.19,19.55-23.05,29.48-48.79,31.98-78.81,2.22-26.63-8.58-68.02-27.87-85.71l-5.98-8.9-21.7-19.43-2.58-1.92-.3-1.47c.46-7.54-7.15-9.28-11.97-11.86-32.97-17.69-67.09-23.9-104.49-16.66-15.18,2.94-44.42,16.13-51.59,27.7Z"/>
          <path class="cls-1" d="M575.55,802.09l-19.5,12.99-40.57,19.72c-17.72,8.62-36.25,12.07-55.06,12.08l-38.93.03c-12.09,0-25.91-.7-36.52-6.67-8.02-4.51-17.1-6.95-26.13-8.61-12.71-2.34-24.11-9.68-34.63-17.1.04-1.56.74-2.81,1.79-3.32,2.58-1.23,3.75,1.55,5.63,2.48,26.48,13.12,53.95,23.8,83.41,28.42l28.09-.8c23.82,3.73,56.59-6.05,79.52-15.93l27.18-11.7,15.98-10.69c3.43-2.29,6.3-4.2,9.74-.9Z"/>
          <path class="cls-1" d="M610.13,500.85c7.9,15.42,20.1,28.75,26.9,46.05l9.47,24.12,4.33,15.14c.96,3.37,2.52,7.93,2.49,11.7l-.1,11.29c4.85,24.85.38,50.51-2.49,75.91-13.66,38.43-17.76,57.58-49.1,91.31-5.2,5.6-8.32,13.15-16.42,13.85,20.57-24.3,42.89-47.94,53.28-80.7l9.36-38.55c10.42-42.89-4.62-123.07-32.5-154.3-4.84-5.43-8.85-10.71-10.25-17.43l5.03,1.61Z"/>
          <path class="cls-1" d="M477.57,423.88c34.22,5.28,65.47,21.25,94.42,41.24,1.81,1.25,3.82,1.52,4.42,2.47.47.76.17,3.09-.76,3.65-27.1-16.71-54.75-36.8-89.31-41.47-7.17-.97-13.11-1.62-19.88-3.25-13.7-3.29-29.07-.26-42.93-.78-20.02-.76-68.38,12.51-87.04,25.07-1.06.71-3.52-1.17-3.49-1.61,14.49-10.68,31.07-18.34,49.71-21.7l30.45-5.48,44.94-.34c6.85-.05,13.71,1.31,19.48,2.2Z"/>
          <path class="cls-1" d="M271.74,499.58c3.02.23,2.79,2.11,1.95,2.98l-14.82,23.55c-4.25,6.75-6.92,13.13-10.67,20.04-11.63,21.45-21.89,66.87-16.88,89.15l-1.33,18.07c2.51,5.26,2.16,7.44,2.24,12.48.25,15.31,14.22,53.69,23.23,66.3,3.57,4.99,7.21,11.92,6.81,17.46-16.53-16.94-25.73-47.4-33.09-71.53.53-5.22-.47-11.15-1.74-17.34-6.5-31.64.05-55.75,3.52-83.82l9.39-23.58c3.55-8.92,10.2-16.9,12.02-26.77l19.37-26.98Z"/>
          <path class="cls-1" d="M229.18,678.08c-9.79-32.1-10.59-70.07,1.78-101.16-3.48,28.08-10.03,52.18-3.52,83.82,1.27,6.19,2.27,12.11,1.74,17.34Z"/>
          <path class="cls-1" d="M650.73,685.07c2.87-25.41,7.34-51.07,2.49-75.91.62-.84,3.99-.33,3.95,2.09l-.79,48.75c-.16,9.62-2.91,17.36-5.65,25.08Z"/>
          <path class="cls-1" d="M477.57,423.88c-5.77-.89-12.63-2.25-19.48-2.2l-44.94.34c-.06-2.33,1.61-3.31,3.95-3.29l41.24.39,19.23,4.75Z"/>
          <path class="cls-1" d="M610.13,500.85l-5.03-1.61-1.95-2.56c-3.7-4.85-7.92-9.56-12.96-12.95l-1.48-5.34c7.74,6.41,16.63,13.09,21.43,22.46Z"/>
          <path class="cls-1" d="M460.43,846.88c-.2,1.42-1.83,2.27-4.14,2.27h-30.57c-2.31,0-3.93-.83-4.22-2.24l38.93-.03Z"/>
          <path class="cls-1" d="M240.35,553.33c.46-10.23,6.52-19.11,12.02-26.77-1.82,9.86-8.47,17.85-12.02,26.77Z"/>
          <path class="cls-1" d="M384.98,840.24c-9.17-.36-18.83-3.17-26.13-8.61,9.03,1.66,18.11,4.1,26.13,8.61Z"/>
          <path class="cls-1" d="M300.34,795.19c-5.61-.54-8.95-6.39-13.19-10.41-5.74-5.42-10.38-9.31-13.14-15.63,9.85,7.84,18.71,16.4,26.33,26.04Z"/>
          <path class="cls-1" d="M603.15,496.68c-6-2.13-10.21-7.51-12.96-12.95,5.05,3.39,9.27,8.1,12.96,12.95Z"/>
          <g>
            <path class="cls-1" d="M548.81,719.56c30.72-38.02,40.22-89.22,20.87-135.5l-14.43-28.84c19.29,17.69,30.09,59.08,27.87,85.71-2.5,30.02-12.43,55.76-31.98,78.81.21,2.24-2.66,1.95-2.33-.19Z"/>
            <path class="cls-1" d="M524.7,523.5c-39.11-30.33-103.25-37.86-147.24-12.58-7.22,4.15-14.83,6.46-20.81,11.75,7.18-11.57,36.41-24.76,51.59-27.7,37.4-7.23,71.52-1.03,104.49,16.66,4.81,2.58,12.42,4.32,11.97,11.86Z"/>
            <path class="cls-1" d="M349.61,528.41c-59.08,57.22-63.91,141.51-8.45,201.62-43.93-37.84-55.94-113.19-23.02-165.88l10.21-16.34c2.17-3.47,8.38-6.04,10.59-10.45,2.51-5.02,6.82-7.12,10.67-8.95Z"/>
            <path class="cls-1" d="M523.28,745.78c-2.87,3.85-9.93,7.67-14.88,10.55-42.74,24.89-99.6,25.76-136.66-2.54,43.35,23.48,95.48,23.94,138.98-1.34,4.5-2.61,7.48-7.16,12.56-6.67Z"/>
            <path class="cls-1" d="M527.58,526.89c-1.1-.38-1.94-1.06-2.58-1.92l2.58,1.92Z"/>
          </g>
        </g>
        <g>
          <path class="cls-1" d="M886.22,423.14l2.27.18c2.41,2.91,7.1,2.46,10.89,2.7,23.22,4.59,47.19,12.97,65.17,29.03-2.47.31-2.87,2.41-1.45,3.32,9.64,5.04,14.46,13.23,20.87,20.8,9.47,11.18,17.63,22.24,22.41,36.57s11.21,29.41,11.32,45.8l.2,28.17c.18,25.48-18.57,51.58-17.98,60.85.08,1.22.39,4.14-.09,5.42l-11.66,12.16c.95-1.04-1.14-3.1-1.75-2.48l-13.53,13.86c1.86,1.04,3.2.49,4.69,1.11l-20.68,16.67c-6.57,5.29-15.2,9.53-22.4,10.98-11.86-1.88-32.32,9.9-51.43,10.03l-69.75.46c-5.75.04-8.12-2.61-14.22.14-10.68,4.81-22.33,8.84-31.28,19.02-21.47,24.42-9.96,47.82-14.73,66.45-2.9,11.35-5.94,20.84-16.49,27.28-6.47,3.95-11.86,8.82-20.52,9.78-11.22,1.24-22.57,2.25-35.05.06l-.16-413.97h167.56c.63,0,1.45-1.22,1.24-1.97l-170.9-.21,207.46-2.21ZM743.37,503.27c.73-.12,1.95-.23,2.42.06-1.65,2.96,4.93,5.33,6.05,7.44l1.11,156.21,24.89-12.64,95.51-.14c23.53-.09,50.86-20.71,63.66-42.17,16.29-27.3,16.83-59.28.97-87.16-12.04-13.93-31.49-31.63-47.82-31.74l-144.34-.97c-4.46-.03-6.24,2.53-6.77,5.55-.62,3.58,1.01,6.1,4.32,5.58Z"/>
          <path class="cls-1" d="M934.48,708.29c-2.38,2.04-5.38,4.77-10.18,6.11l-27.18,7.6c-1.64-4.95-6.27-.9-8.9-.89l-79.93.31c-1.78,0-3.46.46-4.04,1.26-.48.66-.38,2.39-.1,2.51-16.77.9-31.69,9.11-39.4,24.22-1.53,2.99-5.88,5.41-5.89,11.59v34.08s-1.91,8.76-1.91,8.76c-1.94,8.92-5.2,21.01-13.1,27.97-9.11,8.02-21.65,14.7-32.53,14.79l-32.56.29v-421.54s170.9.21,170.9.21c.21.75-.61,1.97-1.24,1.97h-167.56s.16,413.97.16,413.97c12.48,2.19,23.83,1.18,35.05-.06,8.66-.96,14.05-5.83,20.52-9.78,10.55-6.45,13.58-15.93,16.49-27.28,4.77-18.64-6.74-42.03,14.73-66.45,8.95-10.18,20.6-14.21,31.28-19.02,6.1-2.75,8.48-.1,14.22-.14l69.75-.46c19.11-.13,39.57-11.91,51.43-10.03Z"/>
          <path class="cls-1" d="M886.22,423.14l-207.46,2.21-2.21,418.83c0,2.1,1.46,2.75,2.22,2.72l32.56-.29c.26.82-.16,2.06-.87,2.05l-35.95-.51-.07-426.94,209.32-.2c1.81,0,2.6,1.42,2.46,2.12Z"/>
          <path class="cls-1" d="M1011.87,513.75l8.75,30.55c.06,1.74,1.18,4.52-.89,6.72,3.87,16.18,3.04,32.97.86,49.34-.47,3.56.84,7.58-1.29,12.39l-13.18,29.72c-1.67,3.77-2.19,7.15-6.21,8.11-.59-9.26,18.16-35.37,17.98-60.85l-.2-28.17c-.11-16.39-6.37-30.94-11.32-45.8s-12.94-25.39-22.41-36.57c-6.41-7.56-11.23-15.76-20.87-20.8-1.41-.91-1.01-3.02,1.45-3.32,21.65,14.15,34.59,36.7,47.32,58.68Z"/>
          <path class="cls-1" d="M897.13,722l-24.49,3.04-53.17.13c-6.09.01-10.42-.23-15.32.03-.29-.12-.38-1.85.1-2.51.58-.8,2.27-1.26,4.04-1.26l79.93-.31c2.63-.01,7.26-4.06,8.9.89Z"/>
          <path class="cls-1" d="M756.95,803.85l1.9-8.76v-34.08c.01-6.18,4.37-8.61,5.9-11.59l-3.68,15.36-.24,36.74c-.02,2.43-3.08,2.87-3.88,2.33Z"/>
          <path class="cls-1" d="M1020.59,600.35c2.17-16.36,3-33.15-.86-49.34,3.08,2.14,4.72,6.18,4.74,10.66l.12,30.12c.02,3.97-1.81,7.12-3.99,8.56Z"/>
          <path class="cls-1" d="M1020.62,544.29l-8.75-30.55c5.27,9.11,8.37,19.6,8.75,30.55Z"/>
          <path class="cls-1" d="M988.16,668.15l-10.59,12.49c-1.49-.63-2.82-.07-4.69-1.11l13.53-13.86c.6-.62,2.69,1.44,1.75,2.48Z"/>
          <path class="cls-1" d="M899.38,426.03c-3.79-.24-8.48.21-10.89-2.7,3.63-.66,8.43-1.18,10.89,2.7Z"/>
          <path class="cls-1" d="M678.76,846.9c-.76.03-2.22-.62-2.22-2.72l2.21-418.83v421.54Z"/>
          <g>
            <path class="cls-1" d="M777.84,654.33c1.71-.87,4.99-2.99,7.02-3.02l90.4-.38c13.46-.26,29.69-8.58,40.86-18.31,36.55-31.83,40.54-87.3,5.46-121.65-10.18-9.97-25.66-15.56-40.31-15.67l-133.3-1c-2.85-.02-5.61,1.67-6.34,3.54-.57,1.45.84,4.09,1.75,5.44-3.31.53-4.95-2-4.32-5.58.53-3.02,2.31-5.58,6.77-5.55l144.34.97c16.33.11,35.78,17.81,47.82,31.74,15.86,27.89,15.32,59.86-.97,87.16-12.8,21.46-40.13,42.08-63.66,42.17l-95.51.14Z"/>
            <path class="cls-1" d="M752.94,666.98l-1.11-156.21c-1.12-2.1-7.7-4.48-6.05-7.44,2.15,1.31,7.24,3.19,8.58,6.57l-1.42,157.08Z"/>
            <path class="cls-1" d="M875.26,650.93l-90.4.38,90.4-.38Z"/>
          </g>
        </g>
      </g>
      <g>
        <path class="cls-1" d="M598.61,1596.76c-.57,1.45-1.23,2.54-3.99,2.43l-39.03-1.54,43.01-.89Z"/>
        <g>
          <path class="cls-1" d="M647.06,1466.89l-2.87-1.76c2.37-3.14,2.4-8.8,10.2-9.55-.43,6.02,1.18,11.14,3.57,15.94-1.75,3.05-2.18,7.24-2.04,11.18l.74,21.15-1.33,87.55c13,2.28,26.19,1.48,40.23.4l.63-235.77-54.91-1.14c-2.06,10.24-8.74,18.71-11.71,28.15-4.25,13.5-8.94,25.47-13.92,38.83l-5.19,13.92c-1.02,2.74-4.83,8.77-5.21,11.85-.83,6.91-4.77,12.21-7.09,18.84l-7.27,20.83-11.13,30.26-6.48,16.63c-1.89,4.86-5.32,7.15-8.86,6.68,0-.81,2.15-2.84,1.58-3.62-.94-1.29-5.43-1.19-6.16-.95l-6.38-14.31,4.28-.25c3.02,2.82,4.17,7.21,4.51,12.98,7.75-1.7,8.97-8.25,11.49-14.95l62.19-164.8c.74-1.95,2.64-4.59,5.95-4.58l58.49.14v246.28s-49.77.04-49.77.04l.15-110.16,1.3-26.69c-4.97,1.47-4.54,4.92-5.01,6.88Z"/>
          <path class="cls-1" d="M494.93,1355.16l7.5,18.23c2.62,6.36,3.39,13.69,7.86,17.99-1.02-.33-2.5.79-2.16,1.28l2.15,3.12c4.27,10.78,6.74,21.58,13.14,30.4l11.9,33.64,7.9,22.38,14.49,34.71.07,4.83-4.28.25c-3.64-8.16-5.29-16.74-9.02-25.93l-4.95-12.23-6.85-17.12c-4.22-10.54-7.64-20.81-11.8-31.85l-15.91-42.29c-3.2-8.49-6.88-16.38-9.28-25.22-1.87-6.87-5.98-12.69-13.63-12.59l-49.48.65-.59,237.71,43.7-.53-.35-112.29c-.03-8.88-3.79-18.05.35-25.98,1-1.85,3.69-2.02,4.71-1.54,2.38,1.11,3.47,2.38,4.33,5.32l5.09,17.39-3.49.4-5.26-13.32c-5.05,4.36-3.3,9.03-3.3,13.23v121.1s-49.74-.1-49.74-.1v-246.27s60.65-.12,60.65-.12c3.22,0,5.39,2.74,6.27,4.75Z"/>
          <path class="cls-1" d="M647.06,1466.89l-1.08,4.55-12.33,34.69c-2.18,6.14-3.5,9.91-5.85,15.95l-14.54,37.34-14.65,37.35-43.01.89c-10.73-2.52-19.39-7.74-26.49-15.33l-4.25-13.26,7.67,7.5c10.37,11.01,21,16.44,36.29,14.97,8.34-.81,20.27,2.7,26.95-4.03,8.49-8.55,9.17-21.93,13.7-32.36l6.53-15.04c4.51-10.38,6.81-20.34,10.86-30.73l11.92-30.55c2.06-5.28,2.39-9.71,5.4-13.68l2.87,1.76Z"/>
          <path class="cls-1" d="M494.93,1355.16c-.88-2.01-3.05-4.76-6.27-4.75l-60.65.12v246.27s49.73.1,49.73.1c.64,0,1.57-.22,3.14.29-.84.55-1.76,1.84-3.24,1.84l-51.79-.06v-250.63s68.63-.06,68.63-.06c1.47,2.8-.08,5.59.45,6.87Z"/>
          <path class="cls-1" d="M645.98,1471.44l1.08-4.55c.46-1.96.04-5.41,5.01-6.88l-1.3,26.69-.15,110.16,49.77-.04v-246.28s-58.49-.14-58.49-.14c-3.31,0-5.21,2.63-5.95,4.58-.58-1.89-.86-3.76.05-6.68l66.58.06-.18,250.12-53.66.05-.2-122.75c0-2.61-.85-3.92-2.56-4.35Z"/>
          <path class="cls-1" d="M519.19,1555.52c-.43-.71-1.81-1.54-2.99-1.91l-29.88-77.71,3.49-.4,27.71,66.68c2,4.81,4.78,8.8,1.67,13.35Z"/>
          <path class="cls-1" d="M480.89,1597.2c-1.58-.51-2.51-.29-3.14-.29v-121.1c.8-.1,2.21.81,2.22,2.46l.93,118.94Z"/>
          <path class="cls-1" d="M557.69,1516.91l-14.49-34.71c5.18.22,5.57,6.68,7.12,11.66,2.63,8.43,7.25,15.1,7.37,23.05Z"/>
          <path class="cls-1" d="M523.41,1426.18c-6.39-8.83-8.87-19.62-13.14-30.4l-2.15-3.12c-.34-.49,1.14-1.61,2.16-1.28,5.34,5.14,9.21,23.74,13.12,34.8Z"/>
          <path class="cls-1" d="M519.19,1555.52c.89,4.94,3.97,9.09,5.68,13.54l4.25,13.26c-7.71-8.24-9.08-18.72-12.92-28.71,1.19.37,2.56,1.2,2.99,1.91Z"/>
          <path class="cls-1" d="M553.48,1522l6.38,14.31c.55,1.24-.19,3.16,1.29,4.16.86.58,2.47.31,3.29.41,3.55.47,6.97-1.82,8.86-6.68l6.48-16.63,11.13-30.26,7.27-20.83c2.31-6.63,6.25-11.93,7.09-18.84.37-3.08,4.18-9.11,5.21-11.85l5.19-13.92c4.98-13.36,9.67-25.33,13.92-38.83,2.97-9.44,9.65-17.92,11.71-28.15l54.91,1.14-.63,235.77c-14.05,1.08-27.23,1.88-40.23-.4l1.33-87.55-.74-21.15c-.14-3.94.29-8.13,2.04-11.18-2.39-4.8-3.99-9.92-3.57-15.94-7.8.75-7.83,6.41-10.2,9.55-3,3.97-3.34,8.39-5.4,13.68l-11.92,30.55c-4.05,10.39-6.36,20.35-10.86,30.73l-6.53,15.04c-4.53,10.43-5.22,23.81-13.7,32.36-6.68,6.73-18.61,3.22-26.95,4.03-15.29,1.48-25.92-3.95-36.29-14.97l-7.67-7.5c-1.71-4.45-4.79-8.6-5.68-13.54,3.11-4.55.33-8.54-1.67-13.35l-27.71-66.68-5.09-17.39c-.86-2.94-1.95-4.21-4.33-5.32-1.02-.48-3.71-.31-4.71,1.54-4.14,7.93-.38,17.1-.35,25.98l.35,112.29-43.7.53.59-237.71,49.48-.65c7.65-.1,11.76,5.73,13.63,12.59,2.41,8.84,6.09,16.72,9.28,25.22l15.91,42.29c4.15,11.04,7.58,21.31,11.8,31.85l6.85,17.12,4.95,12.23c3.72,9.19,5.38,17.77,9.02,25.93Z"/>
          <path class="cls-1" d="M564.44,1540.88c-.81-.11-2.43.17-3.29-.41-1.48-1-.74-2.92-1.29-4.16.73-.24,5.22-.35,6.16.95.57.78-1.57,2.81-1.58,3.62Z"/>
        </g>
        <g>
          <path class="cls-1" d="M1032.66,1359.24l5.46,8.1,91.06,155.01c3.45,5.87,4.98,13.83,10.85,17.52,4.37,2.75,7.96-3.14,7.96-7.79l-.07-176.69,40.95-.46.05,238.08-49.23-.81c-17.24-.28-26.07-12.26-33.39-25.03l-19.76-34.49-33.01-54.7-1,4.66c-3.01-5.18-7.82-9.34-8.03-15.92-.23-7.03-13.54-31.92-17.6-30.78-2.5.7-4.54,2.38-4.53,5.38l.68,149.54c-11.66,3.62-22.78,2.33-31.36-5.24-6.21-5.48-12.02-15.74-12.04-26.52l-.56-204.18,38.76.28c1.64.01,4.18,1.61,5.36,1.33s1.75-2.81,1.36-3.89l2.09.07,6.01,6.51Z"/>
          <path class="cls-1" d="M1178.05,1350.49l2.18.05,13.02,4.35-.07,6.4c-.83-.09-2.17.68-2.17,2.48l-.05,226.35c0,1.86,1.28,2.58,2.19,2.46,0,2.37-3.16,4.56-6.38,4.51l-43.22-.62c-8.26-.12-16.96-3.57-23.78-6.53-9.69-4.21-14.18-15.83-19.68-25.32l-47.58-81.97,1-4.66,33.01,54.7,19.76,34.49c7.31,12.77,16.15,24.75,33.39,25.03l49.23.81-.05-238.08-40.95.46.07,176.69c0,4.64-3.59,10.53-7.96,7.79-5.86-3.69-7.4-11.65-10.85-17.52l-91.06-155.01-5.46-8.1c4.34-.21,7.09,2.28,9.48,6.34l57.56,97.86,21.46,38.95,16.81,28.76c1.13,1.94,2.07,3.71,4.35,3.02,1.8-.55,1.18-2.95,1.18-4.25l-.06-177.14c0-2.07,1.48-2.32,2.2-2.32.22,1.44,1.84,2.38,4.17,2.37l24.1-.07c2.3,0,3.93-.84,4.16-2.28Z"/>
          <path class="cls-1" d="M1024.56,1352.66c.39,1.07-.24,3.62-1.36,3.89s-3.71-1.32-5.36-1.33l-38.76-.28.56,204.18c.03,10.77,5.83,21.03,12.04,26.52,8.58,7.57,19.7,8.87,31.36,5.24l-.68-149.54c-.01-3,2.03-4.67,4.53-5.38,4.06-1.14,17.36,23.75,17.6,30.78-4.37-1.12-5.48-5.54-7.63-9.6l-6.09-11.45c-.96-1.81-1.39-5.06-3.94-6.69l-.09,157.69-21.54,1c-20.5-4.42-28.66-22.72-28.61-41.82l.44-205.38,36.68-.05,10.83,2.23Z"/>
          <path class="cls-1" d="M1119.79,1589.94c6.83,2.96,15.53,6.41,23.78,6.53l43.22.62c3.22.05,6.38-2.14,6.38-4.51l.03-231.29.07-6.4c0-.77.45-3.31-.68-3.72-4.28-1.54-8.59-.54-12.34-.63l-2.18-.05-32.42-.03c-.72,0-2.2.24-2.2,2.32l.06,177.14c-.85.08-2.19-.75-2.19-2.44v-179.1s53.95.51,53.95.51v249.68s-59.02-.7-59.02-.7c-6.51-.08-13.68-2.88-16.45-7.93Z"/>
          <polygon class="cls-1" points="976.6 1555.86 974.86 1555.86 974.88 1352.65 974.88 1350.49 977.04 1350.48 976.6 1555.86"/>
          <path class="cls-1" d="M974.86,1555.86c-.87.01-2.17-.56-2.17-2.37l.02-198.4c0-1.75,1.34-2.55,2.17-2.44l-.02,203.21Z"/>
          <path class="cls-1" d="M1030.78,1445.68c-.53-.21-1.87.64-1.87,2.29l.03,150.58c-8.81,1.5-17.07.57-23.73-.86l21.54-1,.09-157.69c2.54,1.63,2.98,4.88,3.94,6.69Z"/>
          <path class="cls-1" d="M1026.65,1352.73l-2.09-.07-10.83-2.23-36.68.05h-2.17c-.14-.86.76-2.12,2.25-2.12l38.73.09c4.28,0,8.49,1.79,10.79,4.28Z"/>
          <path class="cls-1" d="M1193.16,1592.58c-.9.12-2.19-.6-2.19-2.46l.05-226.35c0-1.8,1.34-2.57,2.17-2.48l-.03,231.29Z"/>
          <path class="cls-1" d="M1178.05,1350.49c-.23,1.44-1.86,2.27-4.16,2.28l-24.1.07c-2.33,0-3.94-.93-4.17-2.37l32.42.03Z"/>
          <path class="cls-1" d="M1193.26,1354.89l-13.02-4.35c3.75.09,8.06-.91,12.34.63,1.13.41.69,2.95.68,3.72Z"/>
        </g>
        <g>
          <path class="cls-1" d="M54.11,1480.18c-.86.13-2.16-.77-2.16-2.31l-.02-84.16h2.17s.01,86.46.01,86.46Z"/>
          <path class="cls-1" d="M160.15,1359.12c10.42,4.28,19.65,9.74,26,19.41-1.12-.44-2.41.57-2.21,1.14,1.25,3.62,8.09,7.05,14.44,27.7,2.92,9.5,2.03,17.65,2.92,27.57,3.26,36.4-18.19,70.86-54.09,80.79-2.16.15-3.18,1.5-2.31,3.36-3.75,2.8-8.44,3.26-12.93,4.1-5.52-5.39-14.9-1.6-21.71-2.58-16.76-2.42-30.82-1.1-43.84,8.86-15.35,11.74-14.75,20.5-14.46,41.4.17,12.02-7.56,21.69-19.49,21.62l-25.92-.15-.02-237.58,125.19.32,22.46,5.83c2.8.73,5.27.17,5.99-1.8ZM51.93,1393.72l-1.99,90.27c-.03,2.93,4.54,5.05,6.32,6.26,1.53,1.04,3.69-3.49,5.95-4.15,29.92-8.65,65.63,3.16,76.43-13.79,3.16-4.96,5.78-10.43,10.44-13.86-.48,1.58-.51,3.98,2.06,4.43,16.46-32.87-.82-56.16-1.41-52.88l-.61,3.4-11.05-10.6c6.99-5.74-13.62-12.67-26.16-12.86l-53.62-.81c-2.61-.04-6.48,2.84-6.35,4.58Z"/>
          <path class="cls-1" d="M160.15,1359.12c-.72,1.97-3.19,2.53-5.99,1.8l-22.46-5.83-125.19-.32.02,237.58,25.92.15c11.93.07,19.66-9.6,19.49-21.62-.29-20.89-.89-29.66,14.46-41.4,1.14.32,2.19.37,2.94.77l-.27,2.16c-3.29.79-6.68,5.6-9.05,8.23-9.53,10.59-3.02,29.83-7.68,45.66-4.69,4.55-9.15,8.57-15.64,10.47-.63.18-1.34.14-2.06.13-.24-1.45-1.85-2.28-4.16-2.29l-26.12-.11.03-237.21c0-1.81-1.36-2.58-2.17-2.48v-2.16s129.68,0,129.68,0l2.2.1c4.62-1.81,8.41-.87,13.47,1.21l12.57,5.16Z"/>
          <path class="cls-1" d="M134.11,1352.74l-2.2-.1c.13-.83-.75-2.17-2.35-2.17H4.58c-1.61,0-2.48,1.34-2.35,2.17v2.16s-.02,241.91-.02,241.91l32.44.18c.72,0,1.43.05,2.06-.13-.13,1.57-1.75,2.44-4.06,2.37l-32.44-.95-.2-249.9,133.42.15c.96,0,1.1,4.55.69,4.3Z"/>
          <path class="cls-1" d="M192.78,1384.9l9.45,24.74,3.01,25.07-3.87,37.02-12.85,21.51c-11.14,12.77-23.07,24.54-39.28,26.13l-4.34-.27c-.87-1.87.16-3.21,2.31-3.36,35.9-9.93,57.35-44.39,54.09-80.79-.89-9.92,0-18.07-2.92-27.57-6.35-20.65-13.19-24.08-14.44-27.7-.2-.58,1.09-1.58,2.21-1.14l6.63,6.38Z"/>
          <path class="cls-1" d="M201.36,1471.73l3.87-37.02-3.01-25.07-9.45-24.74c16.42,15.79,21.85,64.62,8.58,86.82Z"/>
          <path class="cls-1" d="M149.23,1519.37c-11.68,9.51-39.35,8.58-60.72,8.36l-19.44,4.68.27-2.16c16.38-8.68,35.13-1.93,62.62-7.05,4.49-.84,9.18-1.29,12.93-4.1l4.34.27Z"/>
          <path class="cls-1" d="M52.34,1586.29c4.66-15.83-1.84-35.07,7.68-45.66-4.47,17.64,2.3,35.97-7.68,45.66Z"/>
          <path class="cls-1" d="M138.07,1402.8c-5.52-5.29-15.62-6.91-23.37-6.92.05-.87-.85-2.14-2.35-2.14l-58.25-.04h-2.17c-.13-1.72,3.74-4.6,6.35-4.56l53.62.81c12.54.19,33.16,7.11,26.16,12.86Z"/>
          <path class="cls-1" d="M54.11,1480.18c-.66,10.15,9.23-.77,21.54-.15,16.1.81,31.24-.05,45.29-4.53l17.7-3.19c-10.8,16.95-46.51,5.15-76.43,13.79-2.26.65-4.42,5.19-5.95,4.15-1.79-1.21-6.35-3.33-6.32-6.26l1.99-90.27.02,84.16c0,1.54,1.31,2.44,2.16,2.31Z"/>
          <path class="cls-1" d="M131.96,1523.19c-27.48,5.12-46.24-1.64-62.62,7.05-.75-.4-1.79-.45-2.94-.77,13.02-9.96,27.08-11.28,43.84-8.86,6.82.98,16.2-2.81,21.71,2.58Z"/>
          <path class="cls-1" d="M149.08,1458.45c2.56-1.88,1.51-6.31,2.49-8.37,5.36-11.2,4.62-24.6-2.52-34.66l.07-2.03.61-3.4c.59-3.28,17.87,20.01,1.41,52.88-2.57-.45-2.55-2.85-2.06-4.43Z"/>
          <path class="cls-1" d="M34.65,1596.9l-32.44-.18.02-241.91c.81-.09,2.17.68,2.17,2.48l-.03,237.21,26.12.11c2.31,0,3.92.84,4.16,2.29Z"/>
          <path class="cls-1" d="M131.91,1352.65H2.22c-.13-.83.75-2.17,2.35-2.17h124.98c1.61,0,2.48,1.34,2.35,2.17Z"/>
          <path class="cls-1" d="M114.7,1395.89l-58.47-.03.09,86.12c21.32-8.59,43.18-5.25,64.62-6.48-14.04,4.49-29.19,5.35-45.29,4.53-12.31-.62-22.21,10.3-21.54.15v-86.48s58.24.04,58.24.04c1.5,0,2.4,1.27,2.35,2.14Z"/>
          <path class="cls-1" d="M151.57,1450.08c-.02-11.7.55-23.59-2.52-34.66,7.14,10.05,7.89,23.46,2.52,34.66Z"/>
        </g>
        <g>
          <path class="cls-1" d="M401.78,1494.95l-122.86.42-.15,55.79,124.1.71c2.2,16.28,2.26,30.49-.04,46.98l-180.04.09-.16-250.64,181.03-.03.05,47.34-124.79.3v51.79s122.57.29,122.57.29l.29,46.95ZM224.86,1588.25c0,2.46-.59,5.01.5,8.67h174.49s.03-43.27.03-43.27l-121.87-.19-1.32-60.29,121.06-.02v-43.25s-121,.03-121,.03v-56.23s123.2.02,123.2.02c1.42-.22,2.29-1.87,2.28-4.18l-.22-39.07h-177.18s.05,237.77.05,237.77Z"/>
          <path class="cls-1" d="M279.16,1558.66c.11-2.04-.43-4.22-1.16-5.2l121.87.19-.03,43.26h-174.49c-1.09-3.66-.5-6.2-.5-8.67.42-.02,2.33-.73,3.91,1.97l.49-231.01c.77-.14,2.03.6,2.03,2.41l.29,229.69,164.03-.08.69-32.18-117.14-.38Z"/>
          <path class="cls-1" d="M399.94,1393.72l-123.19-.02v56.23s120.98-.03,120.98-.03v43.25s-121.05.02-121.05.02l1.32,60.29c.73.98,1.27,3.16,1.16,5.2-2.98,0-6.95-6.34-6.91-9.09l1.04-60.17,122.21-.66.02-36.68-114.42.04c-2.63,0-8.54-1.41-8.54-4.34l-.03-49.69c0-6.78,7.07-8.9,12.67-8.89l112.47.29-.04-34.69-167.85.11c-.92.36-.95,4.4-.53,4.32l-.49,231.01-1.8-237.59h172.85s.12,41.09.12,41.09Z"/>
          <path class="cls-1" d="M399.94,1393.72l-.12-41.08h-172.85s1.8,237.58,1.8,237.58c-1.59-2.7-3.49-1.99-3.91-1.97l-.05-237.79h177.18s.22,39.08.22,39.08c.01,2.31-.86,3.95-2.28,4.18Z"/>
          <path class="cls-1" d="M279.16,1558.66l117.14.38-.69,32.18-164.03.08-.29-229.69c0-1.81-1.26-2.55-2.03-2.41-.42.08-.38-3.96.53-4.32l167.85-.11.04,34.69-112.47-.29c-5.59-.01-12.67,2.11-12.67,8.89l.03,49.69c0,2.93,5.91,4.34,8.54,4.34l114.42-.04-.02,36.68-122.21.66-1.04,60.17c-.05,2.74,3.93,9.08,6.91,9.09Z"/>
        </g>
        <g>
          <path class="cls-1" d="M875.29,1350.49l15.61,38.95c-.48,4.51,1.47,8.73,3.36,13.67l32.81,85.84,15.59,38.85c-.18,3.17.65,6.72,2.09,10.52l22.11,58.45-52.66-.16-16.48-44.32c-.54-1.46-.23-5.09-2.84-5.09l-73.45-.07c-5.48,0-9.62,1.67-13.11,4.36-5.15,3.98-13.2,6.49-16.9,12.84-5.96,10.2-10.58,20.05-13.07,30.44h-49.78c-1.49,0-2.39,1.26-2.4,2.09-2.43,0-2.86-4.62-1.21-6.35l90.13-237.77c1.3-1,3.6-2.23,6.29-2.23h53.9ZM892.79,1542.26c12.46-.1,14.07,38.92,28.69,47.53,9.65,5.69,25.3.85,35.45.3l-.6-9.87c-5.25-9.15-6.07-18.59-10.14-28.24l-7.5-17.79-10.08-26.05c-.71-9.65-5.02-14.39-7.87-22.08l-19.07-51.39-8.31-24.58-6.57-17.02c-2.89-7.48-5.91-12.44-8-20.67-1.05-4.13-6.91-8.5-5.33-16.1-19.26-2.69-37.04-2.72-55.99,1.28-.08,8.91-5.04,14.88-7.25,20.96l-6.4,17.65c-1.86,5.13-3.54,8.33-5.41,13.31l-13.08,34.76c-2.55,6.77-4.39,12.8-7.2,19.14-5.46,12.34-8.56,24.27-13.47,36.93l-8.35,21.52-23.96,62.18c-1.06,2.75.05,5.57,1.61,6.28,1.09.5,3.32.85,5.19.82l34.48-.46,10.47-22.56,12.78-15.54c6.07-7.38,20.1-9.69,30.48-9.78l65.4-.55Z"/>
          <path class="cls-1" d="M897.73,1552.28c-2.13-1.7-4.41-2.93-7.14-2.93l-69.07-.09c-4.75,1.44-9.06,2.44-13.19,2.23,3.49-2.69,7.63-4.37,13.11-4.36l73.45.07c2.6,0,2.3,3.63,2.84,5.09Z"/>
          <path class="cls-1" d="M927.07,1488.94l-32.81-85.84c-1.89-4.94-3.84-9.15-3.36-13.67l32.88,83.46c2.21,5.62,3.91,10.73,3.3,16.05Z"/>
          <path class="cls-1" d="M914.2,1596.61l52.66.16-22.11-58.45c-1.43-3.79-2.27-7.35-2.09-10.52l27.22,70.25-51.42,1.18c-2.26.05-3.64-.97-4.26-2.62Z"/>
          <path class="cls-1" d="M875.29,1350.49h-53.9c-2.69.01-4.99,1.24-6.29,2.24-.92-1.04-.28-4.4,1.85-4.41l54.3-.11c2.35,0,3.96.83,4.04,2.27Z"/>
          <path class="cls-1" d="M778.35,1594.76c-.16.68-.21,1.42-.17,2.14l-52.01-.05c0-.83.9-2.08,2.4-2.08h49.78Z"/>
          <path class="cls-1" d="M892.79,1542.26l-65.4.55c-10.39.09-24.42,2.4-30.48,9.78l-12.78,15.54-10.47,22.56-34.48.46c-1.87.02-4.1-.33-5.19-.82-1.56-.71-2.66-3.54-1.61-6.28l23.96-62.18,8.35-21.52c4.91-12.66,8.01-24.59,13.47-36.93,2.81-6.34,4.65-12.37,7.2-19.14l13.08-34.76c1.87-4.98,3.55-8.18,5.41-13.31l6.4-17.65c2.2-6.08,7.17-12.05,7.25-20.96,18.94-4,36.73-3.98,55.99-1.28-1.58,7.6,4.28,11.97,5.33,16.1,2.09,8.23,5.11,13.19,8,20.67l6.57,17.02,8.31,24.58,19.07,51.39c2.85,7.69,7.16,12.43,7.87,22.08l10.08,26.05,7.5,17.79c4.07,9.64,4.89,19.09,10.14,28.24l.6,9.87c-10.15.56-25.8,5.39-35.45-.3-14.62-8.62-16.24-47.64-28.69-47.53ZM847.64,1404.36c-.28.18-1.75.4-3.1-1.23-6.59,9.93-9.17,21.45-13.08,33.12l-7.12,21.28-8.36,18.62-5.71,22.59c.46,10.61,12.75,8.61,19.47,7.73,16.91-2.21,34.52,4.25,50.27-.95,8.59-2.84,1.34-16.69-.84-22.74l-17.39-48.4-6.29-18.79-3.74-11.48c-.19-.58-.33-2.7-1.7-2.53-.88.11-2.44.23-2.41,2.78Z"/>
          <path class="cls-1" d="M844.54,1403.13c.28,3.63-.41,5.95-1.61,7.87,2.48,4.04-.36,6.51-1.75,10.89l-6.4,20.07-6.69,18.15c-3.56,9.66-9.83,21.15-10.83,30.66-2.2,1.56-7.24,9.63-3.34,10.3l64.44-.15c2.8-7.74-3.52-13.13-5.59-19.05-1.64-4.7-1.37-8.63-4.02-12.51l-10.38-32.48-4.65-10.63c.04-7.59-2.29-15.46-6.07-21.88-.04-2.55,1.53-2.67,2.41-2.78,1.37-.17,1.51,1.96,1.7,2.53l3.74,11.48,6.29,18.79,17.39,48.4c2.17,6.05,9.43,19.9.84,22.74-15.75,5.21-33.35-1.26-50.27.95-6.72.88-19,2.88-19.47-7.73l5.71-22.59,8.36-18.62,7.12-21.28c3.9-11.67,6.48-23.19,13.08-33.12Z"/>
          <path class="cls-1" d="M853.72,1426.24c-4.58-10.47-5.07-16.15-10.78-15.24,1.2-1.93,1.89-4.25,1.61-7.87,1.35,1.63,2.82,1.42,3.1,1.23,3.79,6.42,6.11,14.29,6.07,21.88Z"/>
          <path class="cls-1" d="M878.36,1500.92l-64.44.15c-3.9-.66,1.14-8.73,3.34-10.3,0,3.01-.55,5.5-2.34,8.81l63.45,1.34Z"/>
          <path class="cls-1" d="M868.75,1469.36c-6.24-9.12-9.09-21.54-10.38-32.48l10.38,32.48Z"/>
        </g>
      </g>
    </g>
  </g>
</svg>