<?xml version="1.0" encoding="UTF-8"?>
<svg id="Layer_2" data-name="Layer 2" xmlns="http://www.w3.org/2000/svg" viewBox="0 0 918.01 274.68">
  <defs>
    <style>
      .cls-1 {
        fill: #fff;
      }
    </style>
  </defs>
  <g id="Layer_1-2" data-name="Layer 1" image-rendering="optimizeQuality" shape-rendering="geometricPrecision" text-rendering="geometricPrecision">
    <g>
      <path class="cls-1" d="M437.32,63.64l25.98,31.13,138.27-.02-.06,21.01-120.05.26,29.73,36.41,38.67.49,30.33,36.14h44.44c-7.76-8.31-12.13-13.41-17.63-20.44l-12.3-15.73,30.63-.32c10.33-.11,16.15-8.89,16.13-18.72l-.12-58.65c-.02-9.75-5.78-15.4-13.53-15.35l-194.66-1.18c-.16,3.32,3.19,3.82,4.15,4.96ZM477.69,152.11l-29.19-36.2-136.42.2,30.07,36.58,135.54-.58Z"/>
      <path class="cls-1" d="M798.27,274.68h-65.75c-.97-3.75-4.82-6.1-6.22-11.73l67.87-.53c3.94-.03,4.32-11.57.56-11.67l-59.4-1.55c-9.3-.24-10.91-11.03-10.82-17.93.08-6.25,3.04-16.74,11.79-16.83l59.33-.6,8.37,11.43-65.29.32c-2.14,2.87-1.69,12.04,1.48,12.14l59.2,1.78c9.05.27,10.79,11.9,10.33,18.87-.48,7.27-4.37,11.84-11.46,16.29Z"/>
      <path class="cls-1" d="M75.05,274.53l-67.17.15c-.21-4.29-3.74-7.03-6.23-11.43l68.87-.73c2.76-1.57,1.99-11.97-1.2-11.98l-52.07-.24c-5.45-.03-9.93-1.33-12.82-4.03-3.89-3.62-4.02-8.23-4.39-13.89-.62-9.71,4.62-18.57,15.02-18.52l53.71.26c4.32.02,8.8,6.98,9.66,11.05l-63.2.76c-3.48.04-3.77,11.56-.39,11.69l60.64,2.23c8.55.31,9.82,12.2,9.45,18.89-.35,6.22-4.6,10.58-9.88,15.79Z"/>
      <path class="cls-1" d="M605.7,274.64l-16.52.02c-3.75-4.58-9.19-14.67-16.44-16.86l-37.66-1.05c-.36,7.11-.09,12.39-2.19,17.88l-11.7.03,1.09-61.19,67.41,1.22c9.63.17,13.52,12.28,13.6,18.93.12,9.56-2.3,17.02-12,22.1,5.43,9.1,14.8,12.34,14.4,18.93ZM588.04,243.06c4.29-1.17,3.34-16.76-.75-16.81l-52.04-.6c-.77,7.77-.91,12.91.12,19.56,18.17-1.53,35.16,2.6,52.66-2.15Z"/>
      <path class="cls-1" d="M690.26,274.67h-56.34c-11.34-7.23-16.34-17.82-15.66-33.15.56-12.4,7.06-27.35,21.45-27.33l48.84.09c15.6.03,20.76,16.55,20.55,29.61-.24,14.75-4.66,25.58-18.85,30.78ZM680.62,262.65c6.41.02,10.7-3.03,12.54-6.02,4.94-8.05,2.84-30.09-7.51-30.11l-43.34-.1c-11.74-.03-13.08,25.38-6.5,31.97,2.08,2.08,6.21,4.14,10.88,4.15l33.94.1Z"/>
      <path class="cls-1" d="M291.03,274.62l-14.05.03-52.87-45.57-1.17,45.49-14.06.04,2.2-60.61c3.17-.27,10.74-2.08,14.05.7l52.7,44.26c1.18-16.11.31-29.76.43-44.99l13-.08-.24,60.74Z"/>
      <path class="cls-1" d="M918.01,274.68h-16.52c-.81-2.97-3.5-11.44-8.37-11.52l-49.19-.73c-4.38,3.94-6.86,8.14-10.15,12.24l-14.36-.08c.34-3.7,2.34-6.57,4.9-10.09l36.54-50.12c4.25-.99,13.54-2.59,16.16,1.02l40.98,59.29ZM885.07,250.77c-6.7-10.16-10.01-16.52-16.87-22.84l-16.25,23.52,33.12-.68Z"/>
      <path class="cls-1" d="M481.24,274.61l-16.41.03c.4-3.79-3.03-11.61-8.42-11.65l-48.69-.37-10.03,12.05-15.03-.03c1.16-1.15,1.35-3.69,2.61-5.41l39.76-54.06c3.16-3.36,12.2-1.77,16.28-.49l35.54,48.89c2.75,3.79,5.32,7.03,4.39,11.06ZM450.14,251.07l-17.29-24.17-17.01,24.45,34.3-.28Z"/>
      <path class="cls-1" d="M190.05,274.53l-14.05.11c.25-3.58-3.12-11.66-8.47-11.69l-48.57-.27-11.07,11.98-14.07-.04c1.36-3.86,3.84-7.09,6.55-10.82l35.52-48.9c5.44-1.98,11.02-2.04,16.48-.1l35.61,48.82c2.78,3.81,4.39,7.08,2.06,10.91ZM160.65,251.25l-16.51-24.3-16.91,24.47,33.42-.17Z"/>
      <path class="cls-1" d="M356.78,274.57l-13.11.11c1.74-15.79,1.47-32.19.53-49.82l-35.97-.79c1.42-4.74,5.69-10,9.62-10.02l75.44-.28c-.71,4.22-4.25,9.72-8.28,9.92l-27.4,1.31-.83,49.57Z"/>
      <g>
        <path class="cls-1" d="M467.17,0c3.49,4.53,6.01,11.35,10.49,16.35,5.92,6.61,13.93,11.91,16.87,20.54l-174.71.04c-2.76,6.68-4,13.82-1.1,21.04l81.04.07,29.91,36.61-135.31.11-15.63-17.57.71-64.46c.07-6.06,7.16-9.3,10.99-12.73h176.74Z"/>
        <path class="cls-1" d="M437.32,63.64c3.33-2.64,7.03-2.44,12.09-2.48l178.43-1.3c7.75-.06,13.51,5.6,13.53,15.35l.12,58.65c.02,9.83-5.8,18.61-16.13,18.72l-30.63.32,12.3,15.73c5.5,7.03,9.87,12.13,17.63,20.43h-44.44s-30.33-36.13-30.33-36.13l-38.67-.49-29.73-36.41,120.05-.26.06-21.01-138.27.02-25.98-31.13Z"/>
        <polygon class="cls-1" points="477.69 152.11 342.15 152.69 312.08 116.11 448.5 115.91 477.69 152.11"/>
        <path class="cls-1" d="M627.83,59.87l-178.43,1.3c-5.05.04-8.76-.16-12.09,2.48-.95-1.14-4.3-1.64-4.15-4.96l194.66,1.18Z"/>
      </g>
    </g>
  </g>
</svg>